<svg xmlns="http://www.w3.org/2000/svg" xmlns:xlink="http://www.w3.org/1999/xlink" width="119.75" height="126.501" viewBox="0 0 119.75 126.501">
  <defs>
    <filter id="Path_2606" x="0" y="81.238" width="116.97" height="43.51" filterUnits="userSpaceOnUse">
      <feOffset input="SourceAlpha"/>
      <feGaussianBlur stdDeviation="3" result="blur"/>
      <feFlood flood-color="#fff" flood-opacity="0.702"/>
      <feComposite operator="in" in2="blur"/>
      <feComposite in="SourceGraphic"/>
    </filter>
    <filter id="rEWard" x="5.5" y="83.501" width="107" height="43" filterUnits="userSpaceOnUse">
      <feOffset dy="3" input="SourceAlpha"/>
      <feGaussianBlur stdDeviation="3" result="blur-2"/>
      <feFlood flood-color="#0a0101" flood-opacity="0.722"/>
      <feComposite operator="in" in2="blur-2"/>
      <feComposite in="SourceGraphic"/>
    </filter>
    <filter id="rEcEivE_" x="5.75" y="59.084" width="114" height="42" filterUnits="userSpaceOnUse">
      <feOffset dy="3" input="SourceAlpha"/>
      <feGaussianBlur stdDeviation="3" result="blur-3"/>
      <feFlood flood-color="#fff" flood-opacity="0.2"/>
      <feComposite operator="in" in2="blur-3"/>
      <feComposite in="SourceGraphic"/>
    </filter>
  </defs>
  <g id="A-receive-icon" transform="translate(-1005.168 -510.499)">
    <g id="Group_3466" data-name="Group 3466" transform="translate(703.979 -2914.112)">
      <g id="Group_3454" data-name="Group 3454" transform="translate(289.596 3509.472)">
        <g id="Group_1066" data-name="Group 1066" transform="translate(-3 1.303)">
          <g transform="matrix(1, 0, 0, 1, 14.59, -86.16)" filter="url(#Path_2606)">
            <path id="Path_2606-2" data-name="Path 2606" d="M4.249,0H93.721A4.25,4.25,0,0,1,97.97,4.251V20.259a4.25,4.25,0,0,1-4.249,4.251H4.249A4.25,4.25,0,0,1,0,20.259V4.251A4.25,4.25,0,0,1,4.249,0Z" transform="translate(9.5 90.74)" fill="#ecc70f" stroke="#bfb6b6" stroke-width="1"/>
          </g>
          <g transform="matrix(1, 0, 0, 1, 14.59, -86.16)" filter="url(#rEWard)">
            <text id="rEWard-2" data-name="rEWard" transform="translate(15.5 109.5)" stroke="#000" stroke-width="1" font-size="21" font-family="AdamGorry-Lights" font-weight="300" letter-spacing="0.03em"><tspan x="0" y="0">rEWard</tspan></text>
          </g>
        </g>
      </g>
      <g transform="matrix(1, 0, 0, 1, 301.19, 3424.61)" filter="url(#rEcEivE_)">
        <text id="rEcEivE_2" data-name="rEcEivE " transform="translate(14.75 85.08)" fill="#fff8d6" font-size="22" font-family="AdamGorry-Lights" font-weight="300" letter-spacing="0.03em"><tspan x="0" y="0">rEcEivE </tspan></text>
      </g>
      <g id="Group_3459" data-name="Group 3459" transform="translate(1 3)">
        <g id="Group_3455" data-name="Group 3455" transform="translate(316.802 3422.112)">
          <g id="Group_3416" data-name="Group 3416" transform="translate(0 0)">
            <g id="noun_receive_1249668" transform="translate(0)">
              <path id="Path_5686" data-name="Path 5686" d="M22.269,84.3a.8.8,0,0,1-.21-.028l.257.028Z" transform="translate(-6.105 -22.348)" fill="#ffdd1a" stroke="#0d0500" stroke-width="1"/>
              <path id="Path_5687" data-name="Path 5687" d="M43.251,63.708,30.644,69.3c1.2-4.88-6.312-23.987-6.382-24.019l-4.207-3.953a28.678,28.678,0,0,1-6.092-4.614C12.2,34.761,7.3,25.382,5.239,21.289A4.9,4.9,0,0,1,7.92,19.052,3.606,3.606,0,0,1,10.947,20c.375.4,2.6,2.814,5.9,6.3.041.031.081.074.12.106l2.764,2.1c-.111,2.248,1.276,4.753,1.994,5.883,2.652,4.093,10.991,7.738,11.346,7.886a.989.989,0,0,0,1.317-.575,1.091,1.091,0,0,0-.546-1.4c-2.257-.971-8.522-4.157-10.436-7.109-1.386-2.2-1.973-4.274-1.5-5.3a2.1,2.1,0,0,1,1.82-.992c1.306.7,6.913,3.613,10.2,4.136a44.668,44.668,0,0,1,7.015,1.4.891.891,0,0,0,.355.127,7.2,7.2,0,0,1,4.645,3.112c1.061,1.812,1.123,4.253.18,7.269Zm20.055-2.631V58.118c-1.2-4.88,2.122,5.622,2.194,5.59L76.322,41.326a28.674,28.674,0,0,0,6.093-4.614c1.761-1.951,5.673-11.329,7.737-15.422a4.886,4.886,0,0,0-2.681-2.237c-.943-.213-.977.106-2.04.948-.375.4-2.6,2.814-5.9,6.3-.039.031-.08.074-.119.106l-2.764,2.1c.111,2.248-1.277,4.753-1.994,5.883C72,38.48,63.661,42.125,63.306,42.273A.988.988,0,0,1,61.99,41.7a1.092,1.092,0,0,1,.546-1.4c2.257-.971,8.522-4.157,10.436-7.109,1.386-2.2,1.973-4.274,1.5-5.3a2.1,2.1,0,0,0-1.821-.992c-1.306.7-6.912,3.613-10.2,4.136a44.665,44.665,0,0,0-7.014,1.4.9.9,0,0,1-.356.127,7.2,7.2,0,0,0-4.644,3.112c-1.062,1.812-1.123,4.253-.181,7.269,2.144,6.907,2.983,25.822,2.9,34.52Z" transform="translate(-5.239 -18.988)" fill="#ffdd1a" stroke="#0d0500" stroke-width="1"/>
            </g>
            <path id="Path_5689" data-name="Path 5689" d="M19.957,0Z" transform="translate(22.296 22.633)" fill="#fff8d2"/>
            <circle id="Ellipse_612" data-name="Ellipse 612" cx="19.729" cy="19.729" r="19.729" transform="translate(22.775 19.729)" fill="#ffdd1a"/>
          </g>
        </g>
        <g id="Group_3456" data-name="Group 3456" transform="translate(343.893 3447.454)">
          <path id="Path_5690" data-name="Path 5690" d="M20.5,5A15.5,15.5,0,1,0,36,20.5,15.512,15.512,0,0,0,20.5,5Z" transform="translate(-5 -5)" fill="#0d0500"/>
        </g>
        <path id="Path_5694" data-name="Path 5694" d="M26.663,16.717l-8.9,8.893a1.018,1.018,0,0,1-.737.305,1.042,1.042,0,0,1-.747-.305L12.551,21.9A1.057,1.057,0,1,1,14.045,20.4l2.978,2.978,8.156-8.156a1.048,1.048,0,0,1,1.484,0A1.061,1.061,0,0,1,26.663,16.717Z" transform="translate(339.904 3442.572)" fill="#ffdd1a" stroke="#ffdd1a" stroke-width="1"/>
      </g>
    </g>
  </g>
</svg>
