<svg xmlns="http://www.w3.org/2000/svg" xmlns:xlink="http://www.w3.org/1999/xlink" width="116.97" height="129" viewBox="0 0 116.97 129">
  <defs>
    <filter id="Path_2606" x="0" y="81.174" width="116.97" height="43.51" filterUnits="userSpaceOnUse">
      <feOffset input="SourceAlpha"/>
      <feGaussianBlur stdDeviation="3" result="blur"/>
      <feFlood flood-color="#fff" flood-opacity="0.702"/>
      <feComposite operator="in" in2="blur"/>
      <feComposite in="SourceGraphic"/>
    </filter>
    <filter id="BOOK" x="10.776" y="81" width="96" height="48" filterUnits="userSpaceOnUse">
      <feOffset dy="3" input="SourceAlpha"/>
      <feGaussianBlur stdDeviation="3" result="blur-2"/>
      <feFlood flood-color="#0a0101" flood-opacity="0.722"/>
      <feComposite operator="in" in2="blur-2"/>
      <feComposite in="SourceGraphic"/>
    </filter>
    <filter id="REad" x="19.75" y="57" width="78" height="43" filterUnits="userSpaceOnUse">
      <feOffset dy="3" input="SourceAlpha"/>
      <feGaussianBlur stdDeviation="3" result="blur-3"/>
      <feFlood flood-color="#fff" flood-opacity="0.149"/>
      <feComposite operator="in" in2="blur-3"/>
      <feComposite in="SourceGraphic"/>
    </filter>
    <filter id="_OO_" x="26.457" y="31.885" width="61" height="45" filterUnits="userSpaceOnUse">
      <feOffset dy="3" input="SourceAlpha"/>
      <feGaussianBlur stdDeviation="3" result="blur-4"/>
      <feFlood flood-opacity="0.161"/>
      <feComposite operator="in" in2="blur-4"/>
      <feComposite in="SourceGraphic"/>
    </filter>
  </defs>
  <g id="A-read-icon" transform="translate(-763.432 -511)">
    <g id="Group_3467" data-name="Group 3467" transform="translate(751.84 596.1)">
      <g id="Group_1066" data-name="Group 1066" transform="translate(-3 1)">
        <g transform="matrix(1, 0, 0, 1, 14.59, -86.1)" filter="url(#Path_2606)">
          <path id="Path_2606-2" data-name="Path 2606" d="M4.249,0H93.721A4.25,4.25,0,0,1,97.97,4.251V20.259a4.25,4.25,0,0,1-4.249,4.251H4.249A4.25,4.25,0,0,1,0,20.259V4.251A4.25,4.25,0,0,1,4.249,0Z" transform="translate(9.5 90.67)" fill="#ecc70f" stroke="#bfb6b6" stroke-width="1"/>
        </g>
        <g transform="matrix(1, 0, 0, 1, 14.59, -86.1)" filter="url(#BOOK)">
          <text id="BOOK-2" data-name="BOOK" transform="translate(20.78 111)" stroke="#000" stroke-width="1" font-size="25" font-family="AdamGorry-Lights" font-weight="300" letter-spacing="0.066em"><tspan x="0" y="0">BOOK</tspan></text>
        </g>
      </g>
    </g>
    <g transform="matrix(1, 0, 0, 1, 763.43, 511)" filter="url(#REad)">
      <text id="REad-2" data-name="REad" transform="translate(28.75 84)" fill="#fff8d6" font-size="23" font-family="AdamGorry-Lights" font-weight="300" letter-spacing="0.035em"><tspan x="0" y="0">REad</tspan></text>
    </g>
    <g id="Group_3468" data-name="Group 3468" transform="translate(770.12 507.721)">
      <g id="Group_2066" data-name="Group 2066" transform="translate(2.161 3.279)">
        <g id="Group_2065" data-name="Group 2065" transform="translate(0 0)">
          <g transform="matrix(1, 0, 0, 1, -8.85, 0)" filter="url(#_OO_)">
            <text id="_OO_2" data-name=" OO " transform="translate(39.46 57.89)" fill="none" stroke="#482805" stroke-width="4" font-size="17" font-family="BerlinSansFBDemi-Bold, Berlin Sans FB" font-weight="700"><tspan x="0" y="0" xml:space="preserve"> OO </tspan></text>
          </g>
          <g id="Group_44" data-name="Group 44" transform="translate(0)">
            <path id="Path_82" data-name="Path 82" d="M48.744,16.283,1.36,9.549,0,0Z" transform="translate(0 26.288) rotate(-5)" fill="#ebc60e"/>
            <path id="Path_85" data-name="Path 85" d="M42.95,30.429,1.095,12.736,0,0Z" transform="translate(3.687 11.843) rotate(-7)" fill="#ebc60e"/>
            <path id="Path_87" data-name="Path 87" d="M31.075,35.516,0,10.486,1.055,0Z" transform="translate(14.431 4.325) rotate(-8)" fill="#ebc60e"/>
            <path id="Path_88" data-name="Path 88" d="M533.576,166.273" transform="translate(-474.391 -118.276)" fill="#ebc60e"/>
            <path id="Path_5683" data-name="Path 5683" d="M48.01,0,1.36,6.7,0,16.25Z" transform="translate(97.805 42.477) rotate(-175)" fill="#ebc60e"/>
            <path id="Path_5684" data-name="Path 5684" d="M42.176,0,1.095,17.583,0,30.318Z" transform="matrix(-0.993, -0.122, 0.122, -0.993, 91.84, 41.935)" fill="#ebc60e"/>
            <path id="Path_5685" data-name="Path 5685" d="M29.9,0,0,24.929,1.055,35.416Z" transform="translate(79.861 39.396) rotate(-172)" fill="#ebc60e"/>
          </g>
          <ellipse id="Ellipse_607" data-name="Ellipse 607" cx="9.642" cy="9.684" rx="9.642" ry="9.684" transform="matrix(0.998, 0.07, -0.07, 0.998, 50.421, 41.28)" fill="#ebc60e"/>
          <ellipse id="Ellipse_609" data-name="Ellipse 609" cx="9.642" cy="9.684" rx="9.642" ry="9.684" transform="matrix(0.998, 0.07, -0.07, 0.998, 30.413, 41.28)" fill="#ebc60e"/>
        </g>
        <ellipse id="Ellipse_608" data-name="Ellipse 608" cx="4.616" cy="4.615" rx="4.616" ry="4.615" transform="translate(54.867 47.108)" fill="#0d0500"/>
        <ellipse id="Ellipse_610" data-name="Ellipse 610" cx="4.616" cy="4.615" rx="4.616" ry="4.615" transform="translate(34.779 47.108)" fill="#0d0500"/>
      </g>
    </g>
  </g>
</svg>
