<svg xmlns="http://www.w3.org/2000/svg" width="34" height="34" viewBox="0 0 34 34">
  <g id="noun_contact_3109468" transform="translate(-45 22)">
    <path id="Path_5696" data-name="Path 5696" d="M42.385,8H16.231a2.527,2.527,0,0,0-2.615,2.429v2.429H12.308a1.218,1.218,0,1,0,0,2.429h3.923a1.218,1.218,0,1,1,0,2.429H13.615V32.286H12.308a1.218,1.218,0,1,0,0,2.429h3.923a1.218,1.218,0,1,1,0,2.429H13.615v2.429A2.527,2.527,0,0,0,16.231,42H42.385A2.527,2.527,0,0,0,45,39.571V10.429A2.527,2.527,0,0,0,42.385,8ZM39.355,32.494a3.259,3.259,0,0,1-3.839,2.157c-9.6-1.794-15.709-10.017-13.642-18.363h0a3.255,3.255,0,0,1,3.833-2.153l1.979.37L28,19.289l-2.1,1.066a13.151,13.151,0,0,0,7.01,9.432l2.1-1.144,4.767,2.134Z" transform="translate(34 -30)" fill="#debf18"/>
  </g>
</svg>
