<svg xmlns="http://www.w3.org/2000/svg" xmlns:xlink="http://www.w3.org/1999/xlink" width="62.387" height="53" viewBox="0 0 62.387 53">
  <defs>
    <filter id="Path_5725" x="0" y="0" width="62.387" height="53" filterUnits="userSpaceOnUse">
      <feOffset input="SourceAlpha"/>
      <feGaussianBlur stdDeviation="3" result="blur"/>
      <feFlood flood-opacity="0.659"/>
      <feComposite operator="in" in2="blur"/>
      <feComposite in="SourceGraphic"/>
    </filter>
  </defs>
  <g id="noun_Email_1039015" transform="translate(0.56 8)">
    <g transform="matrix(1, 0, 0, 1, -0.56, -8)" filter="url(#Path_5725)">
      <path id="Path_5725-2" data-name="Path 5725" d="M11.876,34.435a5.123,5.123,0,0,1-1.436-3.557V6.128A5.123,5.123,0,0,1,15.568,1H49.7a5.128,5.128,0,0,1,5.128,5.128V30.877A5.123,5.123,0,0,1,49.7,36H15.568A5.123,5.123,0,0,1,11.876,34.435Zm5.5-24.126,7.7,7.855L17.319,26.81a1.611,1.611,0,1,0,2.345,2.211l8.181-8.091,2.211,2.244a3.742,3.742,0,0,0,2.581,1.032h0a3.742,3.742,0,0,0,2.581-1.027l2.211-2.244L45.608,29a1.61,1.61,0,0,0,2.345-2.188l-7.76-8.691,7.7-7.855a1.611,1.611,0,1,0-2.211-2.345L32.636,19.375h0L19.591,7.941a1.611,1.611,0,1,0-2.211,2.345Z" transform="translate(-1.44 8)" fill="#23dc85"/>
    </g>
  </g>
</svg>
