<svg xmlns="http://www.w3.org/2000/svg" xmlns:xlink="http://www.w3.org/1999/xlink" width="116.97" height="133.051" viewBox="0 0 116.97 133.051">
  <defs>
    <filter id="Path_2606" x="0" y="87.225" width="116.97" height="43.51" filterUnits="userSpaceOnUse">
      <feOffset input="SourceAlpha"/>
      <feGaussianBlur stdDeviation="3" result="blur"/>
      <feFlood flood-color="#fff" flood-opacity="0.702"/>
      <feComposite operator="in" in2="blur"/>
      <feComposite in="SourceGraphic"/>
    </filter>
    <filter id="TargEt" x="10.722" y="91.051" width="99" height="42" filterUnits="userSpaceOnUse">
      <feOffset dy="3" input="SourceAlpha"/>
      <feGaussianBlur stdDeviation="3" result="blur-2"/>
      <feFlood flood-color="#0a0101" flood-opacity="0.722"/>
      <feComposite operator="in" in2="blur-2"/>
      <feComposite in="SourceGraphic"/>
    </filter>
    <filter id="filtEr" x="12.791" y="59" width="98" height="47" filterUnits="userSpaceOnUse">
      <feOffset dy="3" input="SourceAlpha"/>
      <feGaussianBlur stdDeviation="3" result="blur-3"/>
      <feFlood flood-color="#fff" flood-opacity="0.2"/>
      <feComposite operator="in" in2="blur-3"/>
      <feComposite in="SourceGraphic"/>
    </filter>
  </defs>
  <g id="filter-icon" transform="translate(9.5)">
    <g id="Group_3264" data-name="Group 3264" transform="translate(-24.093 92.151)">
      <g id="Group_1066" data-name="Group 1066" transform="translate(-19)">
        <g transform="matrix(1, 0, 0, 1, 33.59, -92.15)" filter="url(#Path_2606)">
          <path id="Path_2606-2" data-name="Path 2606" d="M4.249,0H93.721A4.25,4.25,0,0,1,97.97,4.251V20.259a4.25,4.25,0,0,1-4.249,4.251H4.249A4.25,4.25,0,0,1,0,20.259V4.251A4.25,4.25,0,0,1,4.249,0Z" transform="translate(9.5 96.73)" fill="#ecc70f" stroke="#bfb6b6" stroke-width="1"/>
        </g>
        <g transform="matrix(1, 0, 0, 1, 33.59, -92.15)" filter="url(#TargEt)">
          <text id="TargEt-2" data-name="TargEt" transform="translate(20.72 116.05)" stroke="#000" stroke-width="1" font-size="20" font-family="AdamGorry-Lights" font-weight="300" letter-spacing="0.066em"><tspan x="0" y="0">TargEt</tspan></text>
        </g>
      </g>
    </g>
    <g transform="matrix(1, 0, 0, 1, -9.5, 0)" filter="url(#filtEr)">
      <text id="filtEr-2" data-name="filtEr" transform="translate(21.79 89)" fill="#fff8d6" font-size="26" font-family="AdamGorry-Lights" font-weight="300" letter-spacing="0.016em"><tspan x="0" y="0">filtEr</tspan></text>
    </g>
    <path id="Path_5503" data-name="Path 5503" d="M20.286,27.571H26A2.286,2.286,0,0,0,26,23H20.286a2.286,2.286,0,0,0,0,4.571Z" transform="translate(11.934 -15.143)" fill="#7b5e1b"/>
    <g id="Group_3271" data-name="Group 3271" transform="translate(-1164 -5999)">
      <path id="Path_5499" data-name="Path 5499" d="M71,43H65.286a2.286,2.286,0,1,0,0,4.571H71A2.286,2.286,0,1,0,71,43Z" transform="translate(1178.363 5984.714)" fill="#7b5e1b"/>
      <path id="Path_5500" data-name="Path 5500" d="M9.286,48.429H46.914a9.143,9.143,0,1,0,0-4.571H9.286a2.286,2.286,0,0,0,0,4.571Zm46.429-6.857a4.571,4.571,0,1,1-4.571,4.571A4.585,4.585,0,0,1,55.714,41.571Z" transform="translate(1171.934 5983.857)" fill="#8d7c55"/>
      <path id="Path_5501" data-name="Path 5501" d="M86.571,63.857H48.943a9.143,9.143,0,1,0,0,4.571H86.571a2.286,2.286,0,1,0,0-4.571ZM40.143,70.714a4.571,4.571,0,1,1,4.571-4.571A4.585,4.585,0,0,1,40.143,70.714Z" transform="translate(1165.791 5983.714)" fill="#8d7c55"/>
      <path id="Path_5502" data-name="Path 5502" d="M26,63H20.286a2.286,2.286,0,0,0,0,4.571H26A2.286,2.286,0,0,0,26,63Z" transform="translate(1163.934 5984.571)" fill="#7b5e1b"/>
      <path id="Path_5504" data-name="Path 5504" d="M40.143,35.286a9.188,9.188,0,0,0,8.8-6.857H86.571a2.286,2.286,0,1,0,0-4.571H48.943a9.12,9.12,0,1,0-8.8,11.429Zm0-13.714a4.571,4.571,0,1,1-4.571,4.571A4.585,4.585,0,0,1,40.143,21.571Z" transform="translate(1165.791 5982)" fill="#8d7c55"/>
      <g id="Ellipse_486" data-name="Ellipse 486" transform="translate(1218.693 6021.07)" fill="none" stroke="#ffdd1a" stroke-width="5">
        <circle cx="9" cy="9" r="9" stroke="none"/>
        <circle cx="9" cy="9" r="6.5" fill="none"/>
      </g>
      <g id="Ellipse_487" data-name="Ellipse 487" transform="translate(1196.693 5999)" fill="none" stroke="#ffdd1a" stroke-width="5">
        <circle cx="9" cy="9" r="9" stroke="none"/>
        <circle cx="9" cy="9" r="6.5" fill="none"/>
      </g>
      <g id="Ellipse_488" data-name="Ellipse 488" transform="translate(1196.693 6041)" fill="none" stroke="#ffdd1a" stroke-width="5">
        <circle cx="9" cy="9" r="9" stroke="none"/>
        <circle cx="9" cy="9" r="6.5" fill="none"/>
      </g>
    </g>
  </g>
</svg>
