<svg xmlns="http://www.w3.org/2000/svg" width="110.818" height="80.074" viewBox="0 0 110.818 80.074">
  <g id="Group_2604" data-name="Group 2604" transform="translate(0 -0.322)">
    <g id="Group_2096" data-name="Group 2096" transform="translate(0 0.322)">
      <g id="Group_2094" data-name="Group 2094" transform="translate(62.11 0)">
        <path id="Path_2805" data-name="Path 2805" d="M1658.367,436.039a76.366,76.366,0,0,1,34.246-8.553c2.181,0,4.378.107,6.532.321a2.01,2.01,0,0,1,1.4.8,2.2,2.2,0,0,1,.425,1.611l-8.06,63.226a2.14,2.14,0,0,1-1.037,1.588,1.956,1.956,0,0,1-1.838.067,37.691,37.691,0,0,0-14.785-2.953,35.545,35.545,0,0,0-14.985,3.247c19.49-6.62,37.055,8.141,37.055,8.141l9.753-79.746C1686.009,421.7,1668.231,429.986,1658.367,436.039Z" transform="translate(-1658.367 -423.457)"/>
      </g>
      <g id="Group_2095" data-name="Group 2095" transform="translate(0 0)">
        <path id="Path_2806" data-name="Path 2806" d="M1666.6,436.039a76.362,76.362,0,0,0-34.246-8.553c-2.18,0-4.378.107-6.53.321a2.008,2.008,0,0,0-1.4.8,2.2,2.2,0,0,0-.426,1.611l8.061,63.226a2.136,2.136,0,0,0,1.037,1.588,1.954,1.954,0,0,0,1.837.067,37.716,37.716,0,0,1,14.786-2.953,35.544,35.544,0,0,1,14.985,3.247c-19.49-6.62-37.056,8.141-37.056,8.141l-9.751-79.746C1638.959,421.7,1656.737,429.986,1666.6,436.039Z" transform="translate(-1617.893 -423.457)"/>
      </g>
      <path id="Path_2810" data-name="Path 2810" d="M-1.833-4.167,38.872,1.948,76.65-4.167,72.926,39.472H1.093Z" transform="translate(17.177 19.734)" fill="#0a0800"/>
      <path id="Path_2807" data-name="Path 2807" d="M1654,439.413h0v52.426h0c18.766-13.856,38.434-4.7,38.434-4.7l7.9-59.542C1674.01,425.095,1654,439.41,1654,439.413Zm33.955,29.466c-.485.033-1.075.078-1.75.11-.674.017-1.432.122-2.257.2l-1.285.131c-.443.053-.9.06-1.372.147-.937.142-1.922.3-2.942.426-1.014.178-2.051.42-3.116.6-1.052.23-2.111.515-3.175.77l-1.573.462c-.52.161-1.051.287-1.553.485-1.009.378-2.032.669-2.973,1.084l-1.4.569c-.452.2-.894.4-1.324.593s-.839.4-1.239.6-.79.378-1.151.578c-.72.4-1.4.752-1.97,1.107-.585.338-1.074.664-1.49.921-.4.278-.725.482-.931.642l-.326.237a13.744,13.744,0,0,1,1.063-1.128c.365-.328.793-.753,1.335-1.173.527-.447,1.154-.9,1.848-1.393.343-.246.723-.473,1.1-.725s.787-.5,1.215-.728l1.31-.723c.449-.243.931-.445,1.409-.673.955-.468,1.98-.858,3.023-1.253.515-.212,1.059-.35,1.595-.527l1.617-.506c1.1-.248,2.2-.521,3.289-.74,1.1-.186,2.18-.338,3.226-.479,1.054-.095,2.074-.157,3.037-.22s1.88-.007,2.72,0l1.208.021c.382,0,.746.059,1.086.085.68.062,1.272.131,1.759.186.971.112,1.523.193,1.523.193S1688.931,468.811,1687.956,468.879Zm1-7.8c-.486.033-1.076.077-1.749.109s-1.433.122-2.259.2l-1.285.131c-.443.053-.9.059-1.373.146-.936.142-1.922.3-2.942.426-1.014.178-2.052.42-3.114.6-1.054.229-2.111.515-3.177.768l-1.573.464c-.52.161-1.051.287-1.552.484-1.009.376-2.032.669-2.972,1.084l-1.4.569-1.323.594c-.438.183-.84.4-1.238.6s-.793.378-1.154.577c-.719.4-1.4.753-1.969,1.108-.585.337-1.074.663-1.489.921-.4.278-.726.482-.932.64l-.326.238a14.2,14.2,0,0,1,1.061-1.128c.365-.329.8-.753,1.338-1.175.525-.447,1.152-.9,1.845-1.392.346-.248.723-.473,1.106-.725s.787-.5,1.215-.727l1.31-.725c.451-.242.929-.444,1.408-.672.956-.468,1.979-.858,3.021-1.253.516-.211,1.061-.352,1.6-.527l1.618-.506c1.1-.249,2.2-.521,3.29-.74,1.1-.185,2.18-.338,3.225-.478,1.052-.1,2.072-.157,3.035-.22s1.881-.008,2.722,0l1.206.023c.383,0,.745.059,1.086.085.681.062,1.273.131,1.759.185.973.112,1.524.193,1.524.193S1689.928,461.008,1688.954,461.075Zm.8-8.177c-.487.033-1.077.077-1.751.108s-1.432.122-2.258.2l-1.284.132c-.443.053-.9.059-1.373.146-.936.142-1.922.3-2.942.426-1.013.178-2.05.42-3.114.6-1.054.23-2.11.515-3.176.769l-1.572.464c-.52.161-1.051.287-1.553.483-1.008.378-2.032.67-2.972,1.086l-1.4.569-1.323.593c-.437.183-.842.4-1.239.6s-.791.377-1.152.577c-.72.4-1.4.754-1.971,1.108-.584.337-1.074.663-1.489.921-.4.278-.725.481-.932.64l-.325.239a13.949,13.949,0,0,1,1.059-1.129c.365-.328.8-.752,1.338-1.173.525-.447,1.152-.9,1.847-1.392.344-.247.724-.474,1.1-.724s.785-.5,1.215-.728l1.31-.725c.449-.241.93-.443,1.408-.673.955-.467,1.978-.856,3.021-1.252.517-.212,1.062-.352,1.6-.527s1.078-.337,1.618-.506c1.1-.249,2.2-.521,3.289-.74,1.1-.186,2.18-.338,3.226-.48,1.052-.093,2.072-.155,3.035-.219s1.881-.008,2.723,0l1.205.022c.384,0,.745.059,1.085.085.682.06,1.275.131,1.76.186.972.112,1.523.193,1.523.193S1690.727,452.83,1689.754,452.9Zm0-7.24c-.487.033-1.077.077-1.751.109-.674.017-1.432.122-2.258.2l-1.284.131c-.443.053-.9.06-1.373.147-.936.142-1.922.3-2.942.427-1.013.177-2.05.418-3.114.6-1.054.23-2.11.516-3.176.77l-1.572.462c-.52.163-1.051.288-1.553.485-1.008.377-2.032.67-2.972,1.085l-1.4.568-1.323.595c-.437.183-.842.4-1.239.6s-.791.377-1.152.577c-.72.4-1.4.753-1.971,1.107-.584.338-1.074.664-1.489.921-.4.28-.725.483-.932.642l-.325.237a14.1,14.1,0,0,1,1.059-1.127c.365-.328.8-.752,1.338-1.173.525-.447,1.152-.9,1.847-1.392.344-.248.724-.474,1.1-.726s.785-.5,1.215-.726l1.31-.725c.449-.242.93-.444,1.408-.673.955-.467,1.978-.856,3.021-1.252.517-.213,1.062-.352,1.6-.529l1.618-.5c1.1-.249,2.2-.523,3.289-.741,1.1-.184,2.18-.338,3.226-.479,1.052-.094,2.072-.155,3.035-.219s1.881-.007,2.723,0l1.205.021c.384,0,.745.059,1.085.085.682.062,1.275.133,1.76.187.972.11,1.523.193,1.523.193S1690.727,445.589,1689.754,445.659Zm.675-8.01c-.486.033-1.076.079-1.75.11s-1.432.122-2.257.2l-1.284.131c-.444.053-.9.061-1.371.147-.937.142-1.923.3-2.942.426-1.017.178-2.052.42-3.117.6-1.053.229-2.112.516-3.176.77l-1.573.462c-.52.163-1.051.287-1.552.485-1.009.378-2.033.669-2.973,1.085l-1.4.568c-.452.2-.894.4-1.325.593s-.839.4-1.238.6-.792.376-1.153.577c-.721.4-1.4.752-1.97,1.107-.585.338-1.075.664-1.489.921-.4.277-.725.482-.931.641l-.326.237a13.63,13.63,0,0,1,1.06-1.128c.365-.328.794-.753,1.336-1.173.527-.447,1.154-.9,1.848-1.394.343-.246.722-.472,1.1-.724s.786-.5,1.214-.726l1.311-.725c.448-.243.931-.444,1.408-.673.956-.468,1.98-.856,3.022-1.252.516-.213,1.061-.352,1.6-.528l1.618-.5c1.1-.249,2.2-.522,3.29-.742,1.095-.186,2.178-.338,3.223-.478,1.052-.1,2.074-.157,3.037-.219s1.88-.009,2.721,0l1.207.021c.382,0,.744.059,1.085.085.682.062,1.272.131,1.76.187.971.11,1.523.193,1.523.193S1691.4,437.581,1690.429,437.649Z" transform="translate(-1599.439 -419.331)" fill="#f3ca11"/>
      <path id="Path_2808" data-name="Path 2808" d="M1623.185,427.6l7.9,59.542s19.668-9.154,38.436,4.7h0V439.413h0S1649.507,425.095,1623.185,427.6Zm10.841,41.157s.552-.082,1.526-.193c.485-.054,1.078-.124,1.759-.186.34-.026.7-.085,1.086-.085l1.206-.021c.839,0,1.758-.054,2.721,0s1.984.125,3.036.22c1.047.14,2.129.293,3.225.479,1.089.219,2.186.492,3.29.74l1.618.506c.535.177,1.079.316,1.595.527,1.042.4,2.067.785,3.021,1.253.48.228.959.43,1.411.673l1.309.723c.428.228.83.478,1.213.728s.762.479,1.107.725c.693.489,1.32.947,1.845,1.393.542.42.973.846,1.338,1.173a14.091,14.091,0,0,1,1.062,1.128l-.326-.237c-.206-.16-.535-.364-.932-.642-.416-.257-.9-.583-1.489-.921-.572-.355-1.249-.7-1.97-1.107-.361-.2-.756-.377-1.153-.578s-.8-.414-1.237-.6l-1.326-.593-1.4-.569c-.941-.415-1.965-.706-2.974-1.084-.5-.2-1.032-.323-1.552-.485l-1.573-.462c-1.065-.255-2.123-.541-3.177-.77-1.062-.179-2.1-.421-3.114-.6-1.02-.13-2-.284-2.942-.426-.468-.086-.927-.094-1.371-.147l-1.285-.131c-.826-.078-1.584-.184-2.259-.2-.674-.032-1.263-.077-1.749-.11C1634.589,468.811,1634.027,468.752,1634.027,468.752Zm-1-7.8s.55-.082,1.524-.193c.487-.055,1.078-.124,1.758-.185.34-.026.7-.085,1.086-.085l1.208-.023c.84,0,1.756-.053,2.72,0s1.985.125,3.038.22c1.044.141,2.128.293,3.223.478,1.09.219,2.188.491,3.289.74l1.618.506c.535.175,1.078.316,1.594.527,1.043.4,2.068.785,3.022,1.253.478.228.96.43,1.409.672l1.309.725c.428.228.83.478,1.215.727s.76.477,1.1.725c.693.489,1.32.945,1.847,1.392.542.421.972.846,1.337,1.175a13.837,13.837,0,0,1,1.061,1.128l-.326-.238c-.206-.159-.533-.363-.931-.64-.414-.258-.906-.584-1.49-.921-.573-.355-1.25-.705-1.97-1.108-.361-.2-.754-.376-1.151-.577s-.8-.415-1.239-.6l-1.325-.594-1.4-.569c-.94-.416-1.963-.708-2.973-1.084-.5-.2-1.033-.323-1.552-.484l-1.573-.464c-1.064-.254-2.123-.539-3.175-.768-1.065-.18-2.1-.421-3.116-.6-1.022-.13-2.006-.284-2.943-.426-.466-.087-.926-.094-1.371-.146l-1.285-.131c-.824-.08-1.583-.184-2.257-.2s-1.264-.075-1.75-.109C1633.59,461.008,1633.03,460.949,1633.03,460.949Zm-.8-8.177s.551-.082,1.524-.193c.486-.054,1.078-.125,1.759-.186.339-.026.7-.085,1.086-.085l1.206-.022c.842,0,1.758-.055,2.721,0s1.983.125,3.037.219c1.046.142,2.13.295,3.224.48,1.09.219,2.188.491,3.29.74.54.169,1.08.336,1.618.506s1.08.315,1.6.527c1.042.4,2.067.785,3.02,1.252.479.23.96.432,1.411.673l1.309.725c.429.228.83.479,1.215.728s.76.477,1.105.724c.694.49,1.32.945,1.846,1.392.543.421.972.845,1.336,1.173a13.774,13.774,0,0,1,1.062,1.129l-.327-.239c-.206-.159-.533-.362-.931-.64-.414-.258-.9-.585-1.49-.921-.572-.355-1.249-.7-1.969-1.108-.362-.2-.755-.376-1.153-.577s-.8-.415-1.238-.6-.873-.391-1.325-.593l-1.4-.569c-.94-.415-1.965-.708-2.972-1.086-.5-.2-1.033-.322-1.553-.483s-1.049-.308-1.573-.464c-1.064-.254-2.123-.539-3.177-.769-1.062-.179-2.1-.421-3.114-.6-1.02-.13-2-.284-2.942-.426-.466-.088-.928-.094-1.372-.146l-1.285-.132c-.825-.08-1.583-.184-2.257-.2s-1.264-.075-1.751-.108C1632.791,452.83,1632.232,452.772,1632.232,452.772Zm0-7.24s.551-.083,1.524-.193c.486-.054,1.078-.125,1.759-.187.339-.026.7-.083,1.086-.085l1.206-.021c.842,0,1.758-.054,2.721,0s1.983.126,3.037.219c1.046.14,2.13.294,3.224.479,1.09.219,2.188.492,3.29.741l1.618.5c.536.177,1.08.316,1.6.529,1.042.4,2.067.785,3.02,1.252.479.229.96.432,1.411.673l1.309.725c.429.228.83.477,1.215.726s.76.478,1.105.726c.694.489,1.32.945,1.846,1.392.543.421.972.845,1.336,1.173a13.915,13.915,0,0,1,1.062,1.127l-.327-.237c-.206-.159-.533-.362-.931-.642-.414-.257-.9-.582-1.49-.921-.572-.354-1.249-.7-1.969-1.107-.362-.2-.755-.378-1.153-.577s-.8-.415-1.238-.6l-1.325-.595-1.4-.568c-.94-.415-1.965-.708-2.972-1.085-.5-.2-1.033-.322-1.553-.485s-1.049-.308-1.573-.462c-1.064-.254-2.123-.54-3.177-.77-1.062-.18-2.1-.421-3.114-.6-1.02-.13-2-.285-2.942-.427-.466-.086-.928-.094-1.372-.147l-1.285-.131c-.825-.078-1.583-.184-2.257-.2-.675-.032-1.264-.076-1.751-.109C1632.791,445.589,1632.232,445.532,1632.232,445.532Zm-.676-8.008s.551-.083,1.526-.193c.485-.056,1.077-.125,1.757-.187.341-.026.7-.085,1.087-.085l1.206-.021c.84,0,1.757-.055,2.72,0s1.984.124,3.036.219c1.047.14,2.129.293,3.226.478,1.091.219,2.187.492,3.291.742l1.617.5c.535.177,1.079.315,1.6.528,1.042.4,2.066.784,3.021,1.252.48.229.959.43,1.41.673l1.309.725c.428.228.831.477,1.214.726s.761.479,1.106.724c.693.49,1.32.947,1.845,1.394.542.42.973.845,1.339,1.173a14.074,14.074,0,0,1,1.061,1.128l-.326-.237c-.207-.16-.534-.364-.933-.641-.415-.257-.9-.583-1.488-.921-.574-.355-1.25-.7-1.971-1.107-.36-.2-.755-.378-1.152-.577s-.8-.415-1.237-.6-.874-.391-1.325-.593l-1.4-.568c-.941-.417-1.966-.708-2.975-1.085-.5-.2-1.03-.322-1.551-.485l-1.573-.462c-1.064-.254-2.123-.541-3.177-.77-1.063-.18-2.1-.421-3.113-.6-1.022-.129-2.006-.284-2.942-.426-.469-.086-.928-.094-1.372-.147l-1.286-.131c-.825-.078-1.583-.184-2.259-.2s-1.262-.077-1.75-.11C1632.116,437.581,1631.556,437.524,1631.556,437.524Z" transform="translate(-1615.033 -419.331)" fill="#f3ca11"/>
    </g>
  </g>
</svg>
