<svg xmlns="http://www.w3.org/2000/svg" width="34" height="34" viewBox="0 0 34 34">
  <g id="Group_3263" data-name="Group 3263" transform="translate(-373 -19)">
    <g id="noun_job_3897810" transform="translate(374 20)">
      <g id="Group_3258" data-name="Group 3258" transform="translate(-2 -2)">
        <path id="Path_5639" data-name="Path 5639" d="M17.5,22c.274,0,.5-.337.5-.75v-4.5c0-.412-.225-.75-.5-.75h-2c-.276,0-.5.337-.5.75v4.5c0,.412.225.75.5.75Z" transform="translate(1.5 1.267)" fill="#ffda57"/>
        <path id="Path_5640" data-name="Path 5640" d="M31.6,5.533H26.636L25.31,2.881A3.391,3.391,0,0,0,22.261,1H13.739A3.391,3.391,0,0,0,10.69,2.881L9.364,5.533H4.4A3.41,3.41,0,0,0,1,8.933V14.6a3.362,3.362,0,0,0,1.133,2.516,3.3,3.3,0,0,0,1.791.839l.476.068,10.2,1.462V16.867a1.137,1.137,0,0,1,1.133-1.133h4.533A1.137,1.137,0,0,1,21.4,16.867v2.618l10.2-1.462.476-.068a3.3,3.3,0,0,0,1.791-.839A3.362,3.362,0,0,0,35,14.6V8.933A3.41,3.41,0,0,0,31.6,5.533Zm-18.7,0L11.2,6.667l.7-1.133.816-1.643a1.124,1.124,0,0,1,1.02-.623h8.523a1.124,1.124,0,0,1,1.02.623L24.1,5.533Z" fill="#8d7c55"/>
        <path id="Path_5641" data-name="Path 5641" d="M21.267,19.565v1.893a1.137,1.137,0,0,1-1.133,1.133H15.6a1.137,1.137,0,0,1-1.133-1.133V19.565L3.473,17.989A5.1,5.1,0,0,1,2,17.57V29.391a3.41,3.41,0,0,0,3.4,3.4H30.333a3.41,3.41,0,0,0,3.4-3.4V17.57a5.25,5.25,0,0,1-1.5.419ZM10.05,30.849c-.645.074-1.4.134-2.2.173-.4.015-.819.048-1.243.048a2.722,2.722,0,0,1-2.577-1.542,2.784,2.784,0,0,1-.257-1.452c.041-.806.1-1.558.173-2.2a21.429,21.429,0,0,1,.324-2.149,21.423,21.423,0,0,1,.324,2.15c.073.645.134,1.4.173,2.2A1.984,1.984,0,0,0,5,29.034a1.7,1.7,0,0,0,.668.685,1.732,1.732,0,0,0,.936.258c.423,0,.84.034,1.243.048.806.04,1.558.1,2.2.173a21.352,21.352,0,0,1,2.15.326A21.188,21.188,0,0,1,10.05,30.849Z" transform="translate(0.133 2.209)" fill="#8d7c55"/>
      </g>
    </g>
    <path id="Path_5642" data-name="Path 5642" d="M26.636,5.533,25.31,2.881A3.391,3.391,0,0,0,22.261,1H13.739A3.391,3.391,0,0,0,10.69,2.881L9.364,5.533Zm-14.733,0,.816-1.643a1.124,1.124,0,0,1,1.02-.623h8.523a1.124,1.124,0,0,1,1.02.623L24.1,5.533Z" transform="translate(372 18)" fill="#ffda57"/>
  </g>
</svg>
