<svg xmlns="http://www.w3.org/2000/svg" width="35" height="35" viewBox="0 0 35 35">
  <g id="Group_3262" data-name="Group 3262" transform="translate(-285.5 -17.5)">
    <g id="noun_academic_2053015" transform="translate(276 8)">
      <g id="Group_3260" data-name="Group 3260" transform="translate(10 10)">
        <path id="Path_5643" data-name="Path 5643" d="M49.045,12.693a2.706,2.706,0,1,0-2.706,2.693A2.7,2.7,0,0,0,49.045,12.693Zm-4.562,0a1.856,1.856,0,1,1,1.856,1.843A1.852,1.852,0,0,1,44.483,12.693Z" transform="translate(-29.339 -10)" fill="#ffda57" stroke="#ffda57" stroke-width="1"/>
        <path id="Path_5644" data-name="Path 5644" d="M22.531,25.244h.008a2.706,2.706,0,0,0,1.919-4.613,2.657,2.657,0,0,0-1.908-.786,2.7,2.7,0,1,0-.018,5.4Zm-1.29-4a1.851,1.851,0,0,1,1.311-.546h.005a1.834,1.834,0,0,1,1.837,1.842,1.865,1.865,0,0,1-1.857,1.857h-.005a1.834,1.834,0,0,1-1.837-1.842A1.851,1.851,0,0,1,21.241,21.241Z" transform="translate(-15.661 -15.661)" fill="#ffda57" stroke="#ffda57" stroke-width="1"/>
        <path id="Path_5645" data-name="Path 5645" d="M12.693,49.045A2.706,2.706,0,1,0,10,46.339,2.7,2.7,0,0,0,12.693,49.045Zm0-4.562a1.856,1.856,0,1,1-1.843,1.856A1.852,1.852,0,0,1,12.693,44.483Z" transform="translate(-10 -29.339)" fill="#ffda57" stroke="#ffda57" stroke-width="1"/>
        <path id="Path_5646" data-name="Path 5646" d="M22.549,72.851h.008a2.7,2.7,0,0,0-.018-5.4h-.008a2.684,2.684,0,0,0-2.687,2.694,2.715,2.715,0,0,0,2.7,2.7Zm-1.317-4.012a1.825,1.825,0,0,1,1.3-.537h.005a1.865,1.865,0,0,1,1.857,1.857A1.834,1.834,0,0,1,22.557,72h-.005a1.865,1.865,0,0,1-1.857-1.857A1.825,1.825,0,0,1,21.232,68.839Z" transform="translate(-15.661 -43.035)" fill="#ffda57" stroke="#ffda57" stroke-width="1"/>
        <path id="Path_5647" data-name="Path 5647" d="M43.633,80.02a2.706,2.706,0,1,0,2.706-2.693A2.7,2.7,0,0,0,43.633,80.02Zm4.562,0a1.856,1.856,0,1,1-1.856-1.843A1.852,1.852,0,0,1,48.195,80.02Z" transform="translate(-29.339 -48.713)" fill="#ffda57" stroke="#ffda57" stroke-width="1"/>
        <path id="Path_5648" data-name="Path 5648" d="M70.138,72.851h.008a2.7,2.7,0,1,0,.018-5.4h-.008a2.7,2.7,0,1,0-.018,5.4Zm-1.29-4a1.849,1.849,0,0,1,1.311-.546h.005A1.834,1.834,0,0,1,72,70.144,1.865,1.865,0,0,1,70.144,72h-.005A1.834,1.834,0,0,1,68.3,70.159,1.849,1.849,0,0,1,68.848,68.848Z" transform="translate(-43.035 -43.035)" fill="#ffda57" stroke="#ffda57" stroke-width="1"/>
        <path id="Path_5649" data-name="Path 5649" d="M77.327,46.339a2.693,2.693,0,1,0,2.693-2.706A2.7,2.7,0,0,0,77.327,46.339Zm2.693-1.856a1.856,1.856,0,1,1-1.843,1.856A1.852,1.852,0,0,1,80.02,44.483Z" transform="translate(-48.713 -29.339)" fill="#ffda57" stroke="#ffda57" stroke-width="1"/>
        <path id="Path_5650" data-name="Path 5650" d="M70.146,19.845h-.008a2.7,2.7,0,0,0,.018,5.4h.008a2.684,2.684,0,0,0,2.687-2.694,2.715,2.715,0,0,0-2.7-2.7Zm1.317,4.012a1.813,1.813,0,0,1-1.3.537A1.865,1.865,0,0,1,68.3,22.537a1.834,1.834,0,0,1,1.837-1.842h.005A1.865,1.865,0,0,1,72,22.552,1.825,1.825,0,0,1,71.464,23.856Z" transform="translate(-43.035 -15.661)" fill="#ffda57" stroke="#ffda57" stroke-width="1"/>
        <path id="Path_5651" data-name="Path 5651" d="M59.164,16.748a.425.425,0,0,0-.242.815,13.822,13.822,0,0,1,2.786,1.175A.425.425,0,1,0,62.122,18,14.661,14.661,0,0,0,59.164,16.748Z" transform="translate(-37.955 -13.87)" fill="#0096f6"/>
        <path id="Path_5652" data-name="Path 5652" d="M33.5,18.606a.423.423,0,0,0,.2-.051,13.844,13.844,0,0,1,2.8-1.139.425.425,0,1,0-.232-.818,14.68,14.68,0,0,0-2.974,1.209.425.425,0,0,0,.2.8Z" transform="translate(-23.266 -13.784)" fill="#0096f6"/>
        <path id="Path_5653" data-name="Path 5653" d="M17.159,36.2a.424.424,0,0,0,.529-.286,13.822,13.822,0,0,1,1.175-2.786.425.425,0,1,0-.742-.414,14.663,14.663,0,0,0-1.248,2.958A.425.425,0,0,0,17.159,36.2Z" transform="translate(-13.942 -22.936)" fill="#0096f6"/>
        <path id="Path_5654" data-name="Path 5654" d="M18.679,61.119a13.844,13.844,0,0,1-1.139-2.8.425.425,0,1,0-.818.232,14.68,14.68,0,0,0,1.209,2.974.425.425,0,0,0,.747-.4Z" transform="translate(-13.856 -37.605)" fill="#0096f6"/>
        <path id="Path_5655" data-name="Path 5655" d="M33.256,78.222a.425.425,0,1,0-.414.742A14.663,14.663,0,0,0,35.8,80.212a.425.425,0,0,0,.242-.815A13.823,13.823,0,0,1,33.256,78.222Z" transform="translate(-23.009 -49.196)" fill="#0096f6"/>
        <path id="Path_5656" data-name="Path 5656" d="M61.244,78.457a13.844,13.844,0,0,1-2.8,1.139.425.425,0,1,0,.232.818A14.68,14.68,0,0,0,61.649,79.2a.425.425,0,0,0-.4-.747Z" transform="translate(-37.677 -49.333)" fill="#0096f6"/>
        <path id="Path_5657" data-name="Path 5657" d="M80.337,59.039a.425.425,0,1,0-.815-.242,13.821,13.821,0,0,1-1.175,2.786.425.425,0,1,0,.742.414A14.661,14.661,0,0,0,80.337,59.039Z" transform="translate(-49.269 -37.884)" fill="#0096f6"/>
        <path id="Path_5658" data-name="Path 5658" d="M78.753,33a.425.425,0,0,0-.171.576,13.844,13.844,0,0,1,1.139,2.8.425.425,0,1,0,.818-.232,14.681,14.681,0,0,0-1.209-2.974A.424.424,0,0,0,78.753,33Z" transform="translate(-49.405 -23.194)" fill="#0096f6"/>
        <path id="Path_5659" data-name="Path 5659" d="M50.443,39.066a.513.513,0,0,0-.356-.338L44.8,37.318l-2.98-4.572a.533.533,0,0,0-.86,0l-2.98,4.572L32.7,38.729a.513.513,0,0,0-.266.82l3.443,4.236-.287,5.443a.513.513,0,0,0,.7.506l5.109-1.954L46.5,49.733a.513.513,0,0,0,.7-.506l-.287-5.443,3.443-4.236A.513.513,0,0,0,50.443,39.066Z" transform="translate(-24.391 -25.35)" fill="#0096f6" stroke="#ffe44e" stroke-width="1"/>
      </g>
    </g>
  </g>
</svg>
