<svg xmlns="http://www.w3.org/2000/svg" width="190.506" height="167.994" viewBox="0 0 190.506 167.994">
  <g id="Group_2647" data-name="Group 2647" transform="translate(-1444.065 -1385.67)">
    <rect id="Rectangle_285" data-name="Rectangle 285" width="54.166" height="1.663" rx="0.18" transform="translate(1552.917 1453.386) rotate(-45)" fill="#686868"/>
    <ellipse id="Ellipse_81" data-name="Ellipse 81" cx="4.762" cy="4.762" rx="4.762" ry="4.762" transform="translate(1561.578 1436.378)" fill="#010000"/>
    <path id="Path_2465" data-name="Path 2465" d="M1993.719,139.489a18.734,18.734,0,1,0,18.736-18.735A18.688,18.688,0,0,0,1993.719,139.489Z" transform="translate(-423.074 1278.087)" fill="#686868"/>
    <rect id="Rectangle_286" data-name="Rectangle 286" width="1.663" height="54.166" rx="0.18" transform="translate(1485.13 1416.261) rotate(-45)" fill="#686868"/>
    <ellipse id="Ellipse_83" data-name="Ellipse 83" cx="4.762" cy="4.762" rx="4.762" ry="4.762" transform="translate(1506.423 1436.378)" fill="#010000"/>
    <path id="Path_2466" data-name="Path 2466" d="M2003.152,139.489a18.733,18.733,0,1,1-18.735-18.735A18.687,18.687,0,0,1,2003.152,139.489Z" transform="translate(-496.272 1278.087)" fill="#686868"/>
    <rect id="Rectangle_281" data-name="Rectangle 281" width="54.166" height="1.663" rx="0.18" transform="translate(1480.509 1517.699) rotate(-45)" fill="#686868"/>
    <ellipse id="Ellipse_77" data-name="Ellipse 77" cx="4.762" cy="4.762" rx="4.762" ry="4.762" transform="translate(1501.804 1488.058)" fill="#010000"/>
    <rect id="Rectangle_282" data-name="Rectangle 282" width="1.663" height="54.166" rx="0.216" transform="translate(1615.742 1464.886) rotate(90)" fill="#686868"/>
    <rect id="Rectangle_3110" data-name="Rectangle 3110" width="1.663" height="54.166" rx="0.216" transform="translate(1461.779 1466.678) rotate(-90)" fill="#686868"/>
    <ellipse id="Ellipse_78" data-name="Ellipse 78" cx="4.762" cy="4.762" rx="4.762" ry="4.762" transform="translate(1586.466 1470.48) rotate(180)" fill="#010000"/>
    <ellipse id="Ellipse_413" data-name="Ellipse 413" cx="4.762" cy="4.762" rx="4.762" ry="4.762" transform="translate(1491.058 1461.084)" fill="#010000"/>
    <rect id="Rectangle_287" data-name="Rectangle 287" width="1.663" height="54.166" rx="0.216" transform="translate(1538.033 1398.076)" fill="#686868"/>
    <rect id="Rectangle_289" data-name="Rectangle 289" width="1.663" height="54.166" rx="0.216" transform="translate(1539.655 1543.973) rotate(180)" fill="#686868"/>
    <ellipse id="Ellipse_84" data-name="Ellipse 84" cx="4.762" cy="4.762" rx="4.762" ry="4.762" transform="translate(1534.105 1427.353)" fill="#010000"/>
    <ellipse id="Ellipse_85" data-name="Ellipse 85" cx="4.762" cy="4.762" rx="4.762" ry="4.762" transform="translate(1543.581 1512.719) rotate(180)" fill="#010000"/>
    <path id="Path_2467" data-name="Path 2467" d="M37.467,18.735a18.663,18.663,0,0,1-5.6,13.354c-.293.293-.6.574-.916.847a18.667,18.667,0,0,1-9.489,4.331,18.17,18.17,0,0,1-2.725.2,18.41,18.41,0,0,1-2.857-.219,18.667,18.667,0,0,1-9.362-4.311c-.358-.308-.7-.631-1.039-.966A18.733,18.733,0,1,1,37.467,18.735Z" transform="translate(1634.571 1484.516) rotate(180)" fill="#686868"/>
    <path id="Path_2817" data-name="Path 2817" d="M1995.989,153.875a18.664,18.664,0,0,1-5.6,13.354c-.293.293-.6.574-.917.847a18.667,18.667,0,0,1-9.489,4.331,18.176,18.176,0,0,1-2.725.2,18.4,18.4,0,0,1-2.857-.219,18.667,18.667,0,0,1-9.362-4.311c-.358-.308-.7-.631-1.039-.966a18.733,18.733,0,1,1,31.989-13.234Z" transform="translate(-514.457 1311.909)" fill="#686868"/>
    <g id="Group_1015" data-name="Group 1015" transform="translate(1465.351 1494.214)">
      <path id="Path_175" data-name="Path 175" d="M2002.419,167.921a18.733,18.733,0,1,1-18.732-18.731A18.691,18.691,0,0,1,2002.419,167.921Z" transform="translate(-1964.952 -149.19)" fill="#686868"/>
    </g>
    <rect id="Rectangle_283" data-name="Rectangle 283" width="1.663" height="54.166" rx="0.18" transform="translate(1557.536 1480.575) rotate(-45)" fill="#686868"/>
    <ellipse id="Ellipse_79" data-name="Ellipse 79" cx="4.762" cy="4.762" rx="4.762" ry="4.762" transform="translate(1566.194 1488.058)" fill="#010000"/>
    <path id="Path_2462" data-name="Path 2462" d="M1994.452,167.921a18.734,18.734,0,1,0,18.731-18.731A18.688,18.688,0,0,0,1994.452,167.921Z" transform="translate(-418.757 1344.899)" fill="#686868"/>
    <path id="Path_2468" data-name="Path 2468" d="M2015.269,134.381a17.627,17.627,0,1,1-17.627-17.627A17.58,17.58,0,0,1,2015.269,134.381Z" transform="translate(-458.778 1268.916)" fill="#686868"/>
    <path id="Path_2476" data-name="Path 2476" d="M35.253,17.627A17.627,17.627,0,1,1,17.627,0,17.579,17.579,0,0,1,35.253,17.627Z" transform="translate(1556.449 1553.664) rotate(180)" fill="#686868"/>
    <g id="Group_1016" data-name="Group 1016" transform="translate(1510.221 1441.843)">
      <path id="Path_190" data-name="Path 190" d="M2034.481,162.473a28.643,28.643,0,0,1-27.4,28.614c-.41.019-.828.027-1.246.027h-.341a28.644,28.644,0,1,1,28.985-28.641Z" transform="translate(-1977.195 -133.828)" fill="#010000"/>
      <ellipse id="Ellipse_57" data-name="Ellipse 57" cx="28.643" cy="28.642" rx="28.643" ry="28.642" transform="translate(0 0.002)" fill="#010000"/>
    </g>
    <path id="Path_2464" data-name="Path 2464" d="M2004.288,250.043a7.611,7.611,0,1,0-9.938,0,9.955,9.955,0,0,0-4.987,8.615V260.8a1.6,1.6,0,0,0,1.6,1.6h16.712a1.6,1.6,0,0,0,1.6-1.6v-2.142A9.953,9.953,0,0,0,2004.288,250.043Zm-4.969-10.163a4.411,4.411,0,1,1-4.411,4.41A4.415,4.415,0,0,1,1999.32,239.88Zm6.756,19.32h-13.512v-.542a6.756,6.756,0,0,1,13.512,0Z" transform="translate(-515.232 1261.47)" fill="#ffe173"/>
    <path id="Path_2469" data-name="Path 2469" d="M2004.288,250.043a7.611,7.611,0,1,0-9.938,0,9.955,9.955,0,0,0-4.987,8.615V260.8a1.6,1.6,0,0,0,1.6,1.6h16.712a1.6,1.6,0,0,0,1.6-1.6v-2.142A9.953,9.953,0,0,0,2004.288,250.043Zm-4.969-10.163a4.411,4.411,0,1,1-4.411,4.41A4.415,4.415,0,0,1,1999.32,239.88Zm6.756,19.32h-13.512v-.542a6.756,6.756,0,0,1,13.512,0Z" transform="translate(-383.484 1215.341)" fill="#ffe173"/>
    <path id="Path_2818" data-name="Path 2818" d="M2004.288,250.043a7.611,7.611,0,1,0-9.938,0,9.955,9.955,0,0,0-4.987,8.615V260.8a1.6,1.6,0,0,0,1.6,1.6h16.712a1.6,1.6,0,0,0,1.6-1.6v-2.142A9.953,9.953,0,0,0,2004.288,250.043Zm-4.969-10.163a4.411,4.411,0,1,1-4.411,4.41A4.415,4.415,0,0,1,1999.32,239.88Zm6.756,19.32h-13.512v-.542a6.756,6.756,0,0,1,13.512,0Z" transform="translate(-536.128 1215.341)" fill="#ffe173"/>
    <path id="Path_2470" data-name="Path 2470" d="M2004.288,250.043a7.611,7.611,0,1,0-9.938,0,9.955,9.955,0,0,0-4.987,8.615V260.8a1.6,1.6,0,0,0,1.6,1.6h16.712a1.6,1.6,0,0,0,1.6-1.6v-2.142A9.953,9.953,0,0,0,2004.288,250.043Zm-4.969-10.163a4.411,4.411,0,1,1-4.411,4.41A4.415,4.415,0,0,1,1999.32,239.88Zm6.756,19.32h-13.512v-.542a6.756,6.756,0,0,1,13.512,0Z" transform="translate(-403.903 1263.18)" fill="#ffe173"/>
    <path id="Path_2471" data-name="Path 2471" d="M2004.288,250.043a7.611,7.611,0,1,0-9.938,0,9.955,9.955,0,0,0-4.987,8.615V260.8a1.6,1.6,0,0,0,1.6,1.6h16.712a1.6,1.6,0,0,0,1.6-1.6v-2.142A9.953,9.953,0,0,0,2004.288,250.043Zm-4.969-10.163a4.411,4.411,0,1,1-4.411,4.41A4.415,4.415,0,0,1,1999.32,239.88Zm6.756,19.32h-13.512v-.542a6.756,6.756,0,0,1,13.512,0Z" transform="translate(-408.827 1166.921)" fill="#ffe173"/>
    <path id="Path_2472" data-name="Path 2472" d="M2004.288,250.043a7.611,7.611,0,1,0-9.938,0,9.955,9.955,0,0,0-4.987,8.615V260.8a1.6,1.6,0,0,0,1.6,1.6h16.712a1.6,1.6,0,0,0,1.6-1.6v-2.142A9.953,9.953,0,0,0,2004.288,250.043Zm-4.969-10.163a4.411,4.411,0,1,1-4.411,4.41A4.415,4.415,0,0,1,1999.32,239.88Zm6.756,19.32h-13.512v-.542a6.756,6.756,0,0,1,13.512,0Z" transform="translate(-460.502 1152.992)" fill="#ffe173"/>
    <path id="Path_2477" data-name="Path 2477" d="M2004.288,250.043a7.611,7.611,0,1,0-9.938,0,9.955,9.955,0,0,0-4.987,8.615V260.8a1.6,1.6,0,0,0,1.6,1.6h16.712a1.6,1.6,0,0,0,1.6-1.6v-2.142A9.953,9.953,0,0,0,2004.288,250.043Zm-4.969-10.163a4.411,4.411,0,1,1-4.411,4.41A4.415,4.415,0,0,1,1999.32,239.88Zm6.756,19.32h-13.512v-.542a6.756,6.756,0,0,1,13.512,0Z" transform="translate(-460.454 1286.498)" fill="#ffe173"/>
    <path id="Path_2473" data-name="Path 2473" d="M2004.288,250.043a7.611,7.611,0,1,0-9.938,0,9.955,9.955,0,0,0-4.987,8.615V260.8a1.6,1.6,0,0,0,1.6,1.6h16.712a1.6,1.6,0,0,0,1.6-1.6v-2.142A9.953,9.953,0,0,0,2004.288,250.043Zm-4.969-10.163a4.411,4.411,0,1,1-4.411,4.41A4.415,4.415,0,0,1,1999.32,239.88Zm6.756,19.32h-13.512v-.542a6.756,6.756,0,0,1,13.512,0Z" transform="translate(-510.674 1166.921)" fill="#ffe173"/>
    <g id="Group_2104" data-name="Group 2104" transform="translate(1514.568 1454.562)">
      <g id="Group_2094" data-name="Group 2094" transform="translate(27.412 0)">
        <path id="Path_2805" data-name="Path 2805" d="M1658.367,428.772a34.9,34.9,0,0,1,15.114-3.613c.963,0,1.932.045,2.883.136a.9.9,0,0,1,.807,1.017l-3.558,26.709a.9.9,0,0,1-1.269.7,17.257,17.257,0,0,0-6.526-1.247,16.28,16.28,0,0,0-6.613,1.372c8.6-2.8,16.354,3.439,16.354,3.439l4.3-33.688C1670.567,422.716,1662.721,426.215,1658.367,428.772Z" transform="translate(-1658.367 -423.457)"/>
      </g>
      <g id="Group_2095" data-name="Group 2095" transform="translate(0 0)">
        <path id="Path_2806" data-name="Path 2806" d="M1639.39,428.772a34.9,34.9,0,0,0-15.114-3.613c-.962,0-1.933.045-2.882.136a.9.9,0,0,0-.808,1.017l3.557,26.709a.9.9,0,0,0,1.269.7,17.264,17.264,0,0,1,6.525-1.247,16.28,16.28,0,0,1,6.614,1.372c-8.6-2.8-16.354,3.439-16.354,3.439l-4.3-33.688C1627.19,422.716,1635.037,426.215,1639.39,428.772Z" transform="translate(-1617.893 -423.457)"/>
      </g>
      <path id="Path_2810" data-name="Path 2810" d="M-1.833-4.167,16.132-1.583,32.8-4.167,31.161,14.268H-.542Z" transform="translate(8.605 10.743)" fill="#0a0800"/>
      <path id="Path_2807" data-name="Path 2807" d="M1654,432.418h0v22.147h0a18.2,18.2,0,0,1,16.963-1.986l3.486-25.153A33.976,33.976,0,0,0,1654,432.418Zm14.986,12.447c-.214.014-.474.033-.772.047s-.632.052-1,.085l-.568.055c-.2.022-.4.026-.6.062-.414.06-.848.125-1.3.18-.448.075-.9.177-1.375.253-.464.1-.932.218-1.4.325l-.694.2c-.23.068-.464.121-.686.2-.445.159-.9.282-1.312.458l-.619.241-.585.25c-.192.078-.37.17-.546.253s-.349.159-.508.244c-.318.17-.616.318-.869.467s-.474.281-.658.389-.32.2-.411.271l-.144.1a5.825,5.825,0,0,1,.469-.476c.161-.138.35-.318.589-.5s.509-.382.815-.589c.152-.1.319-.2.488-.306s.347-.211.536-.307l.578-.306c.2-.1.411-.188.622-.284.421-.2.874-.362,1.334-.529.227-.089.468-.148.7-.223l.714-.214c.486-.1.971-.22,1.451-.313s.962-.143,1.423-.2c.465-.04.916-.066,1.341-.093s.829,0,1.2,0l.533.009c.168,0,.329.025.479.036.3.026.562.055.776.078.429.047.672.082.672.082S1669.417,444.837,1668.986,444.865Zm.441-3.3c-.215.014-.475.033-.772.046s-.633.052-1,.085l-.567.056c-.2.022-.4.025-.606.062-.413.06-.848.125-1.3.18-.448.075-.906.177-1.375.253-.465.1-.932.218-1.4.325l-.694.2c-.229.068-.464.121-.685.2-.445.159-.9.283-1.312.458l-.62.24-.584.251c-.193.077-.371.17-.546.253s-.35.159-.509.244c-.318.17-.617.318-.869.468s-.474.28-.657.389-.32.2-.411.27l-.144.1a6.153,6.153,0,0,1,.469-.476c.161-.139.352-.318.591-.5s.509-.381.814-.588c.153-.1.319-.2.488-.306s.347-.211.536-.307l.578-.306c.2-.1.41-.187.622-.284.422-.2.874-.362,1.333-.529.228-.089.469-.149.7-.223l.714-.214c.487-.105.972-.22,1.452-.313s.962-.143,1.423-.2c.465-.04.915-.066,1.34-.093s.83,0,1.2,0l.532.01c.169,0,.329.025.479.036.3.026.562.055.776.078.429.047.673.082.673.082S1669.856,441.54,1669.427,441.569Zm.353-3.454c-.215.014-.476.032-.773.046s-.632.052-1,.085l-.567.056c-.2.022-.4.025-.606.062-.413.06-.848.125-1.3.18-.448.075-.905.177-1.375.253-.465.1-.931.217-1.4.325l-.694.2c-.229.068-.464.121-.686.2-.445.159-.9.283-1.312.459l-.62.24-.584.251c-.193.077-.371.17-.547.253s-.349.159-.508.243c-.318.17-.616.318-.87.468s-.474.28-.657.389-.32.2-.411.27l-.143.1a5.922,5.922,0,0,1,.468-.477c.161-.138.351-.318.59-.5s.509-.381.815-.588c.152-.1.319-.2.488-.306s.346-.211.536-.307l.579-.306c.2-.1.41-.187.621-.284.421-.2.873-.362,1.333-.529.228-.09.469-.149.7-.223l.714-.214c.487-.105.972-.22,1.452-.312s.962-.143,1.424-.2c.464-.039.915-.066,1.339-.092s.83,0,1.2,0l.532.009c.169,0,.329.025.479.036.3.025.563.055.777.078.429.047.672.082.672.082S1670.209,438.086,1669.78,438.115Zm0-3.058c-.215.014-.476.033-.773.046s-.632.052-1,.085l-.567.055c-.2.022-.4.025-.606.062-.413.06-.848.126-1.3.18-.448.075-.905.177-1.375.253-.465.1-.931.218-1.4.325l-.694.2c-.229.069-.464.122-.686.2-.445.159-.9.283-1.312.459l-.62.24-.584.251c-.193.077-.371.17-.547.253s-.349.159-.508.244c-.318.17-.616.318-.87.467s-.474.281-.657.389-.32.2-.411.271l-.143.1a5.987,5.987,0,0,1,.468-.476c.161-.139.351-.318.59-.5s.509-.381.815-.588c.152-.1.319-.2.488-.307s.346-.211.536-.307l.579-.306c.2-.1.41-.188.621-.284.421-.2.873-.362,1.333-.529.228-.09.469-.149.7-.223l.714-.213c.487-.105.972-.221,1.452-.313s.962-.143,1.424-.2c.464-.04.915-.066,1.339-.093s.83,0,1.2,0l.532.009c.169,0,.329.025.479.036.3.026.563.056.777.079.429.047.672.082.672.082S1670.209,435.027,1669.78,435.056Zm.3-3.384c-.215.014-.475.033-.773.046s-.632.052-1,.085l-.567.055c-.2.022-.4.026-.605.062-.414.06-.848.126-1.3.18-.448.075-.905.177-1.375.253-.465.1-.932.218-1.4.325l-.694.2c-.229.069-.464.121-.685.2-.446.159-.9.283-1.312.458l-.619.24-.584.251c-.193.078-.371.17-.547.253s-.349.159-.509.244c-.318.17-.616.318-.869.468s-.475.281-.657.389-.32.2-.411.271l-.144.1a5.894,5.894,0,0,1,.468-.477c.161-.138.35-.318.59-.5s.509-.382.815-.589c.151-.1.319-.2.488-.306s.347-.211.536-.307l.578-.306c.2-.1.411-.188.622-.284.422-.2.874-.362,1.333-.529.228-.09.468-.149.7-.223l.714-.213c.487-.105.971-.221,1.452-.313s.962-.143,1.423-.2c.464-.04.915-.066,1.34-.092s.83,0,1.2,0l.533.009c.168,0,.328.025.479.036.3.026.562.055.777.079.429.047.672.082.672.082S1670.507,431.644,1670.078,431.673Z" transform="translate(-1629.92 -423.935)" fill="#f3ca11"/>
      <path id="Path_2808" data-name="Path 2808" d="M1623.185,427.426l3.485,25.153a18.2,18.2,0,0,1,16.964,1.986h0V432.418h0A33.98,33.98,0,0,0,1623.185,427.426Zm4.785,17.386s.244-.035.673-.082c.214-.023.476-.052.776-.078.15-.011.31-.036.479-.036l.532-.009c.371,0,.776-.023,1.2,0s.876.053,1.34.093c.462.059.939.124,1.423.2s.965.208,1.452.313l.714.214c.236.075.477.133.7.223.46.167.912.331,1.333.529.211.1.423.182.622.284l.578.306c.189.1.366.2.535.307s.336.2.489.306c.306.207.583.4.814.589s.429.357.59.5a6.053,6.053,0,0,1,.469.476l-.144-.1c-.091-.068-.236-.154-.411-.271s-.4-.246-.657-.389-.551-.3-.869-.467c-.159-.085-.333-.159-.509-.244s-.354-.175-.546-.253l-.585-.25-.619-.241c-.416-.175-.868-.3-1.313-.458-.221-.084-.455-.137-.685-.2l-.694-.2c-.47-.108-.937-.228-1.4-.325-.469-.076-.927-.178-1.374-.253-.451-.055-.885-.12-1.3-.18-.206-.036-.409-.04-.605-.062l-.567-.055c-.365-.033-.7-.078-1-.085s-.557-.033-.772-.047C1628.218,444.837,1627.97,444.812,1627.97,444.812Zm-.44-3.3s.243-.035.672-.082c.215-.023.476-.052.777-.078.15-.011.311-.036.479-.036l.533-.01c.371,0,.775-.022,1.2,0s.876.053,1.341.093c.46.059.939.124,1.423.2s.965.207,1.452.313l.714.214c.236.074.476.133.7.223.46.167.912.332,1.333.529.211.1.424.182.622.284l.578.306c.189.1.366.2.536.307s.336.2.488.306c.306.207.583.4.815.588s.429.357.59.5a5.915,5.915,0,0,1,.468.476l-.144-.1c-.091-.067-.235-.153-.411-.27s-.4-.247-.658-.389-.551-.3-.869-.468c-.159-.084-.333-.159-.508-.244s-.355-.175-.547-.253l-.585-.251-.619-.24c-.415-.176-.867-.3-1.312-.458-.221-.084-.456-.136-.685-.2l-.694-.2c-.47-.107-.937-.228-1.4-.325-.47-.076-.927-.178-1.375-.253-.451-.055-.885-.12-1.3-.18-.205-.037-.409-.039-.6-.062l-.567-.056c-.364-.034-.7-.078-1-.085s-.558-.032-.772-.046C1627.777,441.54,1627.53,441.516,1627.53,441.516Zm-.352-3.454s.243-.034.672-.082c.215-.023.476-.053.776-.078.15-.011.311-.036.479-.036l.532-.009c.371,0,.776-.023,1.2,0s.875.053,1.34.092c.462.06.94.124,1.423.2s.965.207,1.452.312l.714.214c.237.074.477.133.7.223.46.167.912.331,1.333.529.211.1.424.182.622.284l.578.306c.189.1.367.2.537.307s.335.2.488.306c.306.207.583.4.815.588s.429.357.59.5a5.937,5.937,0,0,1,.469.477l-.144-.1c-.091-.067-.235-.153-.411-.27s-.4-.247-.657-.389-.551-.3-.869-.468c-.16-.084-.333-.159-.509-.243s-.354-.175-.546-.253l-.585-.251-.619-.24c-.414-.175-.867-.3-1.311-.459-.221-.083-.456-.136-.685-.2l-.695-.2c-.47-.107-.937-.228-1.4-.325-.469-.076-.926-.178-1.374-.253-.45-.055-.885-.12-1.3-.18-.206-.037-.41-.04-.606-.062l-.567-.056c-.364-.034-.7-.078-1-.085s-.558-.032-.773-.046C1627.424,438.086,1627.178,438.061,1627.178,438.061Zm0-3.058s.243-.035.672-.082c.215-.023.476-.053.776-.079.15-.011.311-.035.479-.036l.532-.009c.371,0,.776-.023,1.2,0s.875.053,1.34.093c.462.059.94.124,1.423.2s.965.208,1.452.313l.714.213c.237.075.477.133.7.223.46.167.912.332,1.333.529.211.1.424.182.622.284l.578.306c.189.1.367.2.537.307s.335.2.488.307c.306.207.583.4.815.588s.429.357.59.5a6,6,0,0,1,.469.476l-.144-.1c-.091-.067-.235-.153-.411-.271s-.4-.246-.657-.389-.551-.3-.869-.467c-.16-.084-.333-.159-.509-.244s-.354-.175-.546-.253l-.585-.251-.619-.24c-.414-.175-.867-.3-1.311-.459-.221-.083-.456-.136-.685-.2l-.695-.2c-.47-.107-.937-.228-1.4-.325-.469-.076-.926-.178-1.374-.253-.45-.055-.885-.121-1.3-.18-.206-.036-.41-.039-.606-.062l-.567-.055c-.364-.033-.7-.078-1-.085s-.558-.032-.773-.046C1627.424,435.027,1627.178,435,1627.178,435Zm-.3-3.383s.244-.035.673-.082c.214-.024.475-.053.776-.079.15-.011.31-.036.479-.036l.533-.009c.37,0,.775-.023,1.2,0s.876.052,1.34.092c.462.059.94.124,1.423.2s.965.208,1.452.313l.714.213c.236.075.477.133.7.223.46.167.912.331,1.333.529.212.1.423.182.623.284l.578.306c.189.1.367.2.535.307s.336.2.488.306c.306.207.583.4.815.589s.429.357.591.5a6.1,6.1,0,0,1,.468.477l-.144-.1c-.091-.068-.236-.154-.411-.271s-.4-.246-.657-.389-.552-.3-.87-.468c-.159-.085-.333-.159-.509-.244s-.353-.176-.546-.253l-.585-.251-.619-.24c-.416-.176-.868-.3-1.313-.458-.22-.084-.455-.136-.685-.2l-.694-.2c-.47-.107-.937-.228-1.4-.325-.469-.076-.927-.178-1.374-.253-.451-.054-.885-.12-1.3-.18-.207-.036-.409-.04-.605-.062l-.568-.055c-.364-.033-.7-.078-1-.085s-.557-.032-.772-.046C1627.127,431.644,1626.879,431.62,1626.879,431.62Z" transform="translate(-1619.587 -423.935)" fill="#f3ca11"/>
    </g>
  </g>
</svg>
