<svg id="Group_2602" data-name="Group 2602" xmlns="http://www.w3.org/2000/svg" width="100.48" height="90.643" viewBox="0 0 100.48 90.643">
  <g id="noun_books_2227114" transform="translate(17.835)">
    <path id="Path_110" data-name="Path 110" d="M135.98,605.315v16h1.333a2.666,2.666,0,0,1,0,5.332H73.33a13.33,13.33,0,0,1,0-26.66h63.983a2.666,2.666,0,0,1,0,5.332Zm-5.332,0H73.33a8,8,0,1,0,0,16h57.318ZM66.665,573.323H65.332a2.666,2.666,0,0,1,0-5.332h63.983a13.33,13.33,0,0,1,0,26.66H65.332a2.666,2.666,0,0,1,0-5.332h1.333Zm5.332,0v16h57.318a8,8,0,1,0,0-16h-2.666v9.331a2.666,2.666,0,0,1-3.656,2.475l-5.675-2.27-5.675,2.27a2.666,2.666,0,0,1-3.656-2.475v-9.331Zm41.322,0v5.393l3.009-1.2a2.662,2.662,0,0,1,1.981,0l3.009,1.2v-5.393Zm22.661-31.992v16h1.333a2.666,2.666,0,0,1,0,5.332H73.33a13.33,13.33,0,0,1,0-26.66h63.983a2.666,2.666,0,1,1,0,5.332Zm-5.332,0H73.33a8,8,0,1,0,0,16h57.318Z" transform="translate(-60 -536)"/>
  </g>
  <rect id="Rectangle_3103" data-name="Rectangle 3103" width="59.159" height="49.188" transform="translate(0 20.728)" fill="#ffcd1e"/>
  <g id="noun_verified_2276483" transform="translate(3.153 14.953)">
    <ellipse id="Ellipse_27" data-name="Ellipse 27" cx="0.924" cy="0.924" rx="0.924" ry="0.924" transform="translate(12.941 12.941)"/>
    <path id="Path_105" data-name="Path 105" d="M48.823,10H11.849A1.854,1.854,0,0,0,10,11.849v7.395H50.672V11.849A1.854,1.854,0,0,0,48.823,10Zm-34.2,7.395a2.773,2.773,0,1,1,2.773-2.773A2.724,2.724,0,0,1,14.622,17.395Zm7.395,0a2.773,2.773,0,1,1,2.773-2.773A2.724,2.724,0,0,1,22.017,17.395Zm7.395,0a2.773,2.773,0,1,1,2.773-2.773A2.724,2.724,0,0,1,29.412,17.395Z" transform="translate(-0.756 -0.756)"/>
    <path id="Path_106" data-name="Path 106" d="M10,49.731a1.854,1.854,0,0,0,1.849,1.849H48.823a1.854,1.854,0,0,0,1.849-1.849V22H10ZM23.218,33.647a.894.894,0,0,1,1.294,0l5.639,5.546,10.63-10.445a.893.893,0,0,1,1.294.092.972.972,0,0,1,0,1.2L30.8,41.134a.894.894,0,0,1-1.294,0l-6.286-6.193a.894.894,0,0,1,0-1.294Z" transform="translate(-0.756 -1.664)"/>
    <ellipse id="Ellipse_28" data-name="Ellipse 28" cx="0.924" cy="0.924" rx="0.924" ry="0.924" transform="translate(20.336 12.941)"/>
    <path id="Path_107" data-name="Path 107" d="M56.386,0H2.773A2.724,2.724,0,0,0,0,2.773V56.386a2.724,2.724,0,0,0,2.773,2.773H56.386a2.724,2.724,0,0,0,2.773-2.773V2.773A2.724,2.724,0,0,0,56.386,0ZM51.764,48.067a3.708,3.708,0,0,1-3.7,3.7H11.092a3.708,3.708,0,0,1-3.7-3.7V11.092a3.708,3.708,0,0,1,3.7-3.7H48.067a3.708,3.708,0,0,1,3.7,3.7Z" transform="translate(0)"/>
    <ellipse id="Ellipse_29" data-name="Ellipse 29" cx="0.924" cy="0.924" rx="0.924" ry="0.924" transform="translate(27.731 12.941)"/>
  </g>
</svg>
