<svg xmlns="http://www.w3.org/2000/svg" width="34.863" height="34.97" viewBox="0 0 34.863 34.97">
  <g id="Group_3043" data-name="Group 3043" transform="translate(-1288.807 -4316.545)">
    <ellipse id="Ellipse_470" data-name="Ellipse 470" cx="11.394" cy="11.394" rx="11.394" ry="11.394" transform="translate(1294.844 4323.047)" fill="#ffe44e"/>
    <g id="noun_Discount_3581454" transform="translate(1288.807 4316.545)">
      <path id="Path_5488" data-name="Path 5488" d="M28.123,16.1A12.023,12.023,0,1,0,40.146,28.123,12.033,12.033,0,0,0,28.123,16.1Zm0,22.8A10.782,10.782,0,1,1,38.9,28.123,10.777,10.777,0,0,1,28.123,38.9Z" transform="translate(-10.585 -10.638)" fill="#d2c470"/>
      <path id="Path_5490" data-name="Path 5490" d="M34.5,38.5a2.528,2.528,0,0,0,2.518-2.518v-.567A2.528,2.528,0,0,0,34.5,32.9h-.177A2.528,2.528,0,0,0,31.8,35.418v.6a2.528,2.528,0,0,0,2.518,2.518H34.5Zm-1.454-2.483v-.6a1.271,1.271,0,0,1,1.277-1.277H34.5a1.271,1.271,0,0,1,1.277,1.277v.6A1.271,1.271,0,0,1,34.5,37.3h-.177A1.319,1.319,0,0,1,33.041,36.021Z" transform="translate(-20.717 -21.48)"/>
      <path id="Path_5491" data-name="Path 5491" d="M56.2,51.9h-.177A2.528,2.528,0,0,0,53.5,54.418v.6a2.528,2.528,0,0,0,2.518,2.518H56.2a2.528,2.528,0,0,0,2.518-2.518v-.6A2.528,2.528,0,0,0,56.2,51.9Zm1.277,3.121A1.271,1.271,0,0,1,56.2,56.3h-.177a1.271,1.271,0,0,1-1.277-1.277v-.6a1.271,1.271,0,0,1,1.277-1.277H56.2a1.271,1.271,0,0,1,1.277,1.277Z" transform="translate(-34.721 -33.741)"/>
      <path id="Path_5492" data-name="Path 5492" d="M45.379,35.961a.621.621,0,0,0-.887,0l-8.831,9.044a.621.621,0,0,0,0,.887.654.654,0,0,0,.426.177.747.747,0,0,0,.461-.177l8.831-9.044A.621.621,0,0,0,45.379,35.961Z" transform="translate(-23.089 -23.335)"/>
      <path id="Path_5489" data-name="Path 5489" d="M34.38,20.874a4.163,4.163,0,0,0,1.383-2.625A4.08,4.08,0,0,0,34.38,15.66l.213-.177-.213.177a4.256,4.256,0,0,1-.993-1.454,4.1,4.1,0,0,1,.142-1.809,4.192,4.192,0,0,0-.106-2.873A4.221,4.221,0,0,0,30.975,8a4.373,4.373,0,0,1-1.631-.78,4.473,4.473,0,0,1-.78-1.6,4.311,4.311,0,0,0-1.525-2.483A4.1,4.1,0,0,0,24.2,3.034a4.889,4.889,0,0,1-1.844.142A4.256,4.256,0,0,1,20.9,2.183,4.252,4.252,0,0,0,18.314.8a4.252,4.252,0,0,0-2.589,1.383,4.256,4.256,0,0,1-1.454.993,4.1,4.1,0,0,1-1.809-.142,4.192,4.192,0,0,0-2.873.106A4.221,4.221,0,0,0,8.064,5.588a4.373,4.373,0,0,1-.78,1.631,4.473,4.473,0,0,1-1.6.78A4.2,4.2,0,0,0,3.205,9.525,4.192,4.192,0,0,0,3.1,12.4a4.889,4.889,0,0,1,.142,1.844,4.545,4.545,0,0,1-.958,1.419A4.163,4.163,0,0,0,.9,18.285a4.08,4.08,0,0,0,1.383,2.589,4.256,4.256,0,0,1,.993,1.454,4.1,4.1,0,0,1-.142,1.809,4.192,4.192,0,0,0,.106,2.873,4.221,4.221,0,0,0,2.447,1.525,4.373,4.373,0,0,1,1.631.78,4.473,4.473,0,0,1,.78,1.6,4.311,4.311,0,0,0,1.525,2.483,4.1,4.1,0,0,0,2.837.106,6.4,6.4,0,0,1,1.348-.177.973.973,0,0,1,.461.071,4.256,4.256,0,0,1,1.454.993,4.252,4.252,0,0,0,2.589,1.383A4.252,4.252,0,0,0,20.9,34.387a4.256,4.256,0,0,1,1.454-.993,4.1,4.1,0,0,1,1.809.142,4.192,4.192,0,0,0,2.873-.106,4.221,4.221,0,0,0,1.525-2.447,4.373,4.373,0,0,1,.78-1.631,4.473,4.473,0,0,1,1.6-.78,4.311,4.311,0,0,0,2.483-1.525,4.192,4.192,0,0,0,.106-2.873,4.889,4.889,0,0,1-.142-1.844A4.435,4.435,0,0,1,34.38,20.874Zm-2.163,1.1a5.254,5.254,0,0,0,.106,2.341c.142.816.319,1.6.035,2.022a3.617,3.617,0,0,1-1.809.993,5.321,5.321,0,0,0-2.093,1.064,5.091,5.091,0,0,0-1.064,2.093,3.617,3.617,0,0,1-.993,1.809,3.561,3.561,0,0,1-2.022-.035A5.412,5.412,0,0,0,22,32.152a5.1,5.1,0,0,0-1.915,1.241,3.378,3.378,0,0,1-1.809,1.064c-.567,0-1.17-.532-1.809-1.064a4.815,4.815,0,0,0-1.951-1.241,5.254,5.254,0,0,0-2.341.106,3.273,3.273,0,0,1-2.022.035,3.617,3.617,0,0,1-.993-1.809A5.321,5.321,0,0,0,8.1,28.393a5.091,5.091,0,0,0-2.093-1.064A3.617,3.617,0,0,1,4.2,26.336a3.561,3.561,0,0,1,.035-2.022,5.433,5.433,0,0,0,.106-2.376A5.1,5.1,0,0,0,3.1,20.023a3.378,3.378,0,0,1-1.064-1.809v-.035A3.689,3.689,0,0,1,3.1,16.405,4.945,4.945,0,0,0,4.34,14.49a5.254,5.254,0,0,0-.106-2.341c-.142-.816-.319-1.6-.035-2.022a3.617,3.617,0,0,1,1.809-.993A5.321,5.321,0,0,0,8.1,8.071,5.091,5.091,0,0,0,9.164,5.978a3.617,3.617,0,0,1,.993-1.809,3.561,3.561,0,0,1,2.022.035,5.412,5.412,0,0,0,2.376.106A5.1,5.1,0,0,0,16.47,3.07a3.378,3.378,0,0,1,1.809-1.064c.567,0,1.17.532,1.809,1.064a4.815,4.815,0,0,0,1.951,1.241A5.254,5.254,0,0,0,24.379,4.2c.816-.142,1.6-.319,2.022-.035a3.617,3.617,0,0,1,.993,1.809,5.091,5.091,0,0,0,1.064,2.093A5.091,5.091,0,0,0,30.55,9.135a3.617,3.617,0,0,1,1.809.993,3.561,3.561,0,0,1-.035,2.022,5.433,5.433,0,0,0-.106,2.376,5.1,5.1,0,0,0,1.241,1.915,3.378,3.378,0,0,1,1.064,1.809v.035a3.689,3.689,0,0,1-1.064,1.773l-.213-.177.213.177h0A5.919,5.919,0,0,0,32.217,21.974Z" transform="translate(-0.9 -0.8)" fill="#d2c470"/>
    </g>
  </g>
</svg>
