<svg xmlns="http://www.w3.org/2000/svg" width="91.123" height="91.124" viewBox="0 0 91.123 91.124">
  <g id="Group_2984" data-name="Group 2984" transform="translate(-1360.679 -3776.297)">
    <g id="noun_Trophy_186859" transform="translate(1360.679 3776.297)">
      <path id="Path_96" data-name="Path 96" d="M85.428,17.086H74.038V0H17.086V17.086H5.7a5.694,5.694,0,0,0-5.7,5.7V45.562a5.694,5.694,0,0,0,5.7,5.7H17.652A28.531,28.531,0,0,0,39.867,73.471v6.262h-5.7a5.694,5.694,0,0,0-5.7,5.7v5.7H62.647v-5.7a5.694,5.694,0,0,0-5.7-5.7h-5.7V73.471a28.5,28.5,0,0,0,22.2-22.214H85.428a5.694,5.694,0,0,0,5.7-5.7V22.781A5.694,5.694,0,0,0,85.428,17.086ZM17.086,39.867h-5.7V28.476h5.7Zm36.953-5.917,5.638,17.407L45.5,40.823,31.312,51.257l5.65-17.143L22.8,22.781H39.812L45.485,5.917,51.2,22.781h17Zm25.694,5.917h-5.7V28.476h5.7Z" transform="translate(0)" fill="#ffcd1e"/>
    </g>
  </g>
</svg>
