<svg xmlns="http://www.w3.org/2000/svg" width="91.781" height="91.781" viewBox="0 0 91.781 91.781">
  <g id="Group_3251" data-name="Group 3251" transform="translate(-559.008 -2050.008)">
    <circle id="Ellipse_537" data-name="Ellipse 537" cx="45.891" cy="45.891" r="45.891" transform="translate(559.008 2050.008)" fill="#fbda1e"/>
    <path id="Path_5601" data-name="Path 5601" d="M2036.083,2645.785l-8.134-8.407c-2.67-2.76-4.884-3.389-6.512-2.863a3.937,3.937,0,0,0-1.7,1.132,6.037,6.037,0,0,0-1.152,1.958c-.747,2.021-.609,4.439.694,5.786l12.083,12.489c2.318,2.4,3.881,3.594,5.326,3.594v0c1.447,0,3.01-1.2,5.326-3.59l26.471-27.36c1.3-1.347,1.441-3.765.694-5.786a6.037,6.037,0,0,0-1.151-1.957,3.942,3.942,0,0,0-1.7-1.133c-1.628-.527-3.841.1-6.512,2.863l-22.523,23.279-.607.627Z" transform="translate(-1440.134 -543.473)" fill="#fffffe" fill-rule="evenodd"/>
  </g>
</svg>
