<svg xmlns="http://www.w3.org/2000/svg" xmlns:xlink="http://www.w3.org/1999/xlink" width="116.97" height="130.051" viewBox="0 0 116.97 130.051">
  <defs>
    <filter id="Path_2606" x="0" y="82.225" width="116.97" height="43.51" filterUnits="userSpaceOnUse">
      <feOffset input="SourceAlpha"/>
      <feGaussianBlur stdDeviation="3" result="blur"/>
      <feFlood flood-color="#fff" flood-opacity="0.702"/>
      <feComposite operator="in" in2="blur"/>
      <feComposite in="SourceGraphic"/>
    </filter>
    <filter id="jobs" x="16.722" y="82.051" width="83" height="48" filterUnits="userSpaceOnUse">
      <feOffset dy="3" input="SourceAlpha"/>
      <feGaussianBlur stdDeviation="3" result="blur-2"/>
      <feFlood flood-color="#0a0101" flood-opacity="0.722"/>
      <feComposite operator="in" in2="blur-2"/>
      <feComposite in="SourceGraphic"/>
    </filter>
    <filter id="filtEr" x="12.791" y="58" width="92" height="45" filterUnits="userSpaceOnUse">
      <feOffset dy="3" input="SourceAlpha"/>
      <feGaussianBlur stdDeviation="3" result="blur-3"/>
      <feFlood flood-color="#fff" flood-opacity="0.149"/>
      <feComposite operator="in" in2="blur-3"/>
      <feComposite in="SourceGraphic"/>
    </filter>
  </defs>
  <g id="J-filter-icon" transform="translate(-522.582 -877)">
    <g id="Group_3264" data-name="Group 3264" transform="translate(507.989 964.151)">
      <g id="Group_1066" data-name="Group 1066" transform="translate(-19)">
        <g transform="matrix(1, 0, 0, 1, 33.59, -87.15)" filter="url(#Path_2606)">
          <path id="Path_2606-2" data-name="Path 2606" d="M4.249,0H93.721A4.25,4.25,0,0,1,97.97,4.251V20.259a4.25,4.25,0,0,1-4.249,4.251H4.249A4.25,4.25,0,0,1,0,20.259V4.251A4.25,4.25,0,0,1,4.249,0Z" transform="translate(9.5 91.73)" fill="#ecc70f" stroke="#bfb6b6" stroke-width="1"/>
        </g>
        <g transform="matrix(1, 0, 0, 1, 33.59, -87.15)" filter="url(#jobs)">
          <text id="jobs-2" data-name="jobs" transform="translate(26.72 112.05)" stroke="#000" stroke-width="1" font-size="25" font-family="AdamGorry-Lights" font-weight="300" letter-spacing="0.066em"><tspan x="0" y="0">jobs</tspan></text>
        </g>
      </g>
    </g>
    <g transform="matrix(1, 0, 0, 1, 522.58, 877)" filter="url(#filtEr)">
      <text id="filtEr-2" data-name="filtEr" transform="translate(21.79 86)" fill="#fff8d6" font-size="24" font-family="AdamGorry-Lights" font-weight="300" letter-spacing="0.016em"><tspan x="0" y="0">filtEr</tspan></text>
    </g>
    <path id="Path_5503" data-name="Path 5503" d="M20.286,27.571H26A2.286,2.286,0,0,0,26,23H20.286a2.286,2.286,0,0,0,0,4.571Z" transform="translate(528.016 860.857)" fill="#fd3"/>
    <g id="Group_3271" data-name="Group 3271" transform="translate(-637.918 -5124)">
      <path id="Path_5499" data-name="Path 5499" d="M71.373,43H65.392a2.392,2.392,0,1,0,0,4.785h5.981a2.392,2.392,0,1,0,0-4.785Z" transform="translate(1181.276 5986.054)" fill="#fd3"/>
      <path id="Path_5500" data-name="Path 5500" d="M9.392,48.962H48.777a9.57,9.57,0,1,0,0-4.785H9.392a2.392,2.392,0,0,0,0,4.785Zm48.6-7.177A4.785,4.785,0,1,1,53.2,46.57,4.8,4.8,0,0,1,57.988,41.785Z" transform="translate(1171.934 5984.877)" fill="#ffdd1a"/>
      <path id="Path_5501" data-name="Path 5501" d="M89.165,64.177H49.78a9.57,9.57,0,1,0,0,4.785H89.165a2.392,2.392,0,1,0,0-4.785Zm-48.6,7.177a4.785,4.785,0,1,1,4.785-4.785A4.8,4.8,0,0,1,40.57,71.354Z" transform="translate(1166.625 5984.661)" fill="#ffdd1a"/>
      <path id="Path_5502" data-name="Path 5502" d="M26.373,63H20.392a2.392,2.392,0,0,0,0,4.785h5.981a2.392,2.392,0,0,0,0-4.785Z" transform="translate(1164.074 5985.838)" fill="#fd3"/>
      <path id="Path_5504" data-name="Path 5504" d="M40.57,36.139a9.616,9.616,0,0,0,9.211-7.177H89.165a2.392,2.392,0,1,0,0-4.785H49.78A9.546,9.546,0,1,0,40.57,36.139Zm0-14.354a4.785,4.785,0,1,1-4.785,4.785A4.8,4.8,0,0,1,40.57,21.785Z" transform="translate(1166.625 5984)" fill="#ffdd1a"/>
      <g id="Ellipse_486" data-name="Ellipse 486" transform="translate(1220.548 6022.1)" fill="none" stroke="#fd3" stroke-width="5">
        <circle cx="9.42" cy="9.42" r="9.42" stroke="none"/>
        <circle cx="9.42" cy="9.42" r="6.92" fill="none"/>
      </g>
      <g id="Ellipse_487" data-name="Ellipse 487" transform="translate(1197.522 6001)" fill="none" stroke="#fd3" stroke-width="5">
        <circle cx="9.42" cy="9.42" r="9.42" stroke="none"/>
        <circle cx="9.42" cy="9.42" r="6.92" fill="none"/>
      </g>
      <g id="Ellipse_488" data-name="Ellipse 488" transform="translate(1197.522 6041.96)" fill="none" stroke="#fd3" stroke-width="5">
        <circle cx="9.42" cy="9.42" r="9.42" stroke="none"/>
        <circle cx="9.42" cy="9.42" r="6.92" fill="none"/>
      </g>
    </g>
  </g>
</svg>
