<svg xmlns="http://www.w3.org/2000/svg" width="34" height="34" viewBox="0 0 34 34">
  <g id="noun_connections_3068212" transform="translate(-7.3 -6.4)">
    <path id="Path_5481" data-name="Path 5481" d="M37.239,28.024A4.162,4.162,0,0,0,34,29.555L28.911,26.76a6.39,6.39,0,0,0,0-5.19l5.024-2.795a2.856,2.856,0,1,0-.757-1.93,3.268,3.268,0,0,0,.138.865l-5.093,2.861a7.108,7.108,0,0,0-.688-.8,6.472,6.472,0,0,0-3.923-1.8V14.185a3.978,3.978,0,0,0,3.441-3.859A4,4,0,0,0,22.992,6.4a3.959,3.959,0,0,0-4.061,3.926,3.978,3.978,0,0,0,3.441,3.859v3.793a6.12,6.12,0,0,0-3.923,1.8,7.107,7.107,0,0,0-.688.8l-3.579-2a3.774,3.774,0,0,0,.138-.865,2.89,2.89,0,0,0-2.96-2.861,2.863,2.863,0,1,0,0,5.722,3.167,3.167,0,0,0,2.2-.932l3.579,2a6.39,6.39,0,0,0,0,5.19L14.527,28.29a4.128,4.128,0,0,0-3.166-1.53A4,4,0,0,0,7.3,30.686a3.959,3.959,0,0,0,4.061,3.926,3.959,3.959,0,0,0,4.061-3.926,3.178,3.178,0,0,0-.275-1.4l2.615-1.464a7.107,7.107,0,0,0,.688.8,6.472,6.472,0,0,0,3.923,1.8v4.325a2.961,2.961,0,1,0,1.239,0V30.42a6.12,6.12,0,0,0,3.923-1.8,7.108,7.108,0,0,0,.688-.8l5.162,2.861a4.051,4.051,0,0,0-.206,1.264,4.063,4.063,0,1,0,4.061-3.926Z" transform="translate(0 0)" fill="#fff8d2"/>
    <g id="Ellipse_506" data-name="Ellipse 506" transform="translate(16.452 17.872)" fill="#fff8d2" stroke="#ffd900" stroke-width="2">
      <circle cx="6.537" cy="6.537" r="6.537" stroke="none"/>
      <circle cx="6.537" cy="6.537" r="5.537" fill="none"/>
    </g>
  </g>
</svg>
