<svg xmlns="http://www.w3.org/2000/svg" width="119.712" height="50" viewBox="0 0 119.712 50">
  <g id="noun_Save_Money_2545948" data-name="noun_Save Money_2545948" transform="translate(-2)">
    <g id="Group_25" data-name="Group 25" transform="translate(2 0)">
      <path id="Path_51" data-name="Path 51" d="M3.928,112.3v50H22.613V118.518s0-.008,0-.012V112.3Zm33.713,4.938a52.323,52.323,0,0,0-13.163,2.022v30.314c2.682-1.513,6.031-1.712,9.659-1.2a77.3,77.3,0,0,1,14.138,3.981c9.867,3.493,20.114,7.376,26.524,5.427,10.443-3.178,22.9-11.288,32.68-18.609,9.023-6.756,15.171-12.291,16.161-13.187-2.574-2.654-4.849-3.9-7.028-4.152-2.373-.277-4.793.536-7.564,2.11C103.507,127.089,96.815,133.2,87.154,138a.93.93,0,0,1-.392.1c-3.972.1-7.2.067-11.546.1h-.023c-3.815.087-7.714.167-12.339.248a.931.931,0,1,1-.046-1.862h.013c4.628-.081,8.528-.158,12.344-.246a.047.047,0,0,1,.014,0c3.333-.077,6.677-.165,10.327-.266a8.591,8.591,0,0,0-4.38-6.7c-2.6-1.5-6.225-2.2-10.223-2.672-8-.94-17.48-.93-23.294-6.308-2.436-2.253-6.008-3.113-9.968-3.145v0Z" transform="translate(-3.928 -112.297)" fill="#fbda1e"/>
    </g>
  </g>
</svg>
