<svg xmlns="http://www.w3.org/2000/svg" xmlns:xlink="http://www.w3.org/1999/xlink" width="85.854" height="85.854" viewBox="0 0 85.854 85.854">
  <defs>
    <filter id="Path_5508" x="0" y="0" width="85.854" height="85.854" filterUnits="userSpaceOnUse">
      <feOffset dy="3" input="SourceAlpha"/>
      <feGaussianBlur stdDeviation="3" result="blur"/>
      <feFlood flood-opacity="0.31"/>
      <feComposite operator="in" in2="blur"/>
      <feComposite in="SourceGraphic"/>
    </filter>
    <filter id="Ellipse_535" x="17.444" y="14.442" width="50.966" height="50.97" filterUnits="userSpaceOnUse">
      <feOffset input="SourceAlpha"/>
      <feGaussianBlur stdDeviation="3" result="blur-2"/>
      <feFlood flood-opacity="0.49"/>
      <feComposite operator="in" in2="blur-2"/>
      <feComposite in="SourceGraphic"/>
    </filter>
  </defs>
  <g id="noun_Target_2568261" transform="translate(9 6)">
    <g transform="matrix(1, 0, 0, 1, -9, -6)" filter="url(#Path_5508)">
      <path id="Path_5508-2" data-name="Path 5508" d="M44.031,21.836V10.1a1.729,1.729,0,0,0-3.458,0V21.836A20.567,20.567,0,0,0,21.835,40.574H10.1a1.729,1.729,0,0,0,0,3.458H21.835A20.568,20.568,0,0,0,40.573,62.769V74.5a1.729,1.729,0,1,0,3.458,0V62.769A20.568,20.568,0,0,0,62.769,44.031H74.5a1.729,1.729,0,1,0,0-3.458H62.769A20.568,20.568,0,0,0,44.031,21.836ZM42.3,59.4A17.1,17.1,0,1,1,59.4,42.3,17.117,17.117,0,0,1,42.3,59.4Z" transform="translate(0.62 -2.38)"/>
    </g>
    <path id="Path_5509" data-name="Path 5509" d="M32.707,21.542A11.165,11.165,0,1,0,43.871,32.707,11.178,11.178,0,0,0,32.707,21.542Zm0,18.871a7.707,7.707,0,1,1,7.707-7.707A7.716,7.716,0,0,1,32.707,40.413Z" transform="translate(1.22 1.221)" fill="#ffdb7e"/>
    <g transform="matrix(1, 0, 0, 1, -9, -6)" filter="url(#Ellipse_535)">
      <ellipse id="Ellipse_535-2" data-name="Ellipse 535" cx="16.483" cy="16.485" rx="16.483" ry="16.485" transform="translate(26.44 23.44)" fill="#f6ce19"/>
    </g>
    <circle id="Ellipse_536" data-name="Ellipse 536" cx="6" cy="6" r="6" transform="translate(28.338 27.454)"/>
  </g>
</svg>
