<svg xmlns="http://www.w3.org/2000/svg" xmlns:xlink="http://www.w3.org/1999/xlink" width="61.067" height="53" viewBox="0 0 61.067 53">
  <defs>
    <filter id="Path_5719" x="0" y="0" width="61.067" height="53" filterUnits="userSpaceOnUse">
      <feOffset input="SourceAlpha"/>
      <feGaussianBlur stdDeviation="3" result="blur"/>
      <feFlood flood-opacity="0.659"/>
      <feComposite operator="in" in2="blur"/>
      <feComposite in="SourceGraphic"/>
    </filter>
  </defs>
  <g id="twitter-3" transform="translate(-115.723 3.338)">
    <g transform="matrix(1, 0, 0, 1, 115.72, -3.34)" filter="url(#Path_5719)">
      <path id="Path_5719-2" data-name="Path 5719" d="M275.182,147.464a17.637,17.637,0,0,1-5.074,1.392,8.861,8.861,0,0,0,3.885-4.888,17.651,17.651,0,0,1-5.612,2.144,8.839,8.839,0,0,0-15.282,6.046,8.938,8.938,0,0,0,.228,2.014,25.086,25.086,0,0,1-18.21-9.231,8.844,8.844,0,0,0,2.734,11.795,8.8,8.8,0,0,1-4-1.1v.112a8.839,8.839,0,0,0,7.087,8.662,8.788,8.788,0,0,1-2.328.31,8.972,8.972,0,0,1-1.663-.156,8.846,8.846,0,0,0,8.252,6.135,17.79,17.79,0,0,1-13.08,3.657,25,25,0,0,0,13.543,3.971c16.25,0,25.137-13.462,25.137-25.137q0-.575-.027-1.143A18,18,0,0,0,275.182,147.464Z" transform="translate(-223.12 -134.32)" fill="#2daae1"/>
    </g>
  </g>
</svg>
